<svg xmlns="http://www.w3.org/2000/svg" xmlns:xlink="http://www.w3.org/1999/xlink" width="1923.453" height="846.04" viewBox="0 0 1923.453 846.04"><defs><linearGradient id="a" x1="0.5" y1="0.032" x2="0.5" y2="0.847" gradientUnits="objectBoundingBox"><stop offset="0" stop-color="#7fcff5"/><stop offset="0.451" stop-color="#4ca6bd"/><stop offset="1" stop-color="#1cb1ba"/></linearGradient><linearGradient id="b" x1="0.5" y1="1" x2="0.5" gradientUnits="objectBoundingBox"><stop offset="0" stop-color="#fff"/><stop offset="1" stop-color="#a7a9ac"/></linearGradient></defs><g transform="translate(253.5)"><g transform="translate(1202.92 45.454)"><g transform="translate(0 0.036)"><path d="M1818.14,956.59H1467.79a11.327,11.327,0,0,1-11.33-11.33V226.51a11.337,11.337,0,0,1,11.34-11.34h350.35a11.327,11.327,0,0,1,11.33,11.33V945.24A11.352,11.352,0,0,1,1818.14,956.59Z" transform="translate(-1456.46 -215.17)" fill="#d7d7d7"/><rect width="352.45" height="608.49" transform="translate(10.7 58)" fill="#d7d7d7"/><g transform="translate(145.15 30.68)"><path d="M1678.63,251.05h-74.41a2.61,2.61,0,0,1-2.61-2.6h0a2.6,2.6,0,0,1,2.61-2.6h74.41a2.6,2.6,0,0,1,2.61,2.6h0A2.616,2.616,0,0,1,1678.63,251.05Z" transform="translate(-1601.61 -245.85)" fill="#d7d7d7"/></g></g><g transform="translate(2.46 2.416)"><path d="M1815.67,951.67H1470.25a11.327,11.327,0,0,1-11.33-11.33V228.89a11.337,11.337,0,0,1,11.34-11.34h345.42a11.327,11.327,0,0,1,11.33,11.33V940.32A11.346,11.346,0,0,1,1815.67,951.67Z" transform="translate(-1458.92 -217.55)" fill="#fff"/><rect width="347.79" height="602.5" transform="translate(10.56 57.43)" fill="url(#a)"/><path d="M1678.15,253.08h-73.42a2.58,2.58,0,0,1-2.58-2.58h0a2.58,2.58,0,0,1,2.58-2.58h73.42a2.58,2.58,0,0,1,2.58,2.58h0A2.574,2.574,0,0,1,1678.15,253.08Z" transform="translate(-1458.92 -217.55)" fill="#d7d7d7"/></g><path d="M1680.61,215.62,1462.82,898.6l-4.83-629.96a51.629,51.629,0,0,1,50.91-52.03C1574.76,215.71,1680.64,214.42,1680.61,215.62Z" transform="translate(-1456.46 -215.134)" fill="#f5fdff" opacity="0.1"/><circle cx="25.67" cy="25.67" r="25.67" transform="translate(161.24 672.566)" opacity="0.5" fill="url(#b)"/><g transform="translate(33.57 90.436)"><path d="M1785.72,426.41H1501.05a11.022,11.022,0,0,1-11.02-11.02v-98.8a11.022,11.022,0,0,1,11.02-11.02h284.67a11.022,11.022,0,0,1,11.02,11.02v98.8A11.034,11.034,0,0,1,1785.72,426.41Z" transform="translate(-1490.03 -305.57)" fill="none" stroke="#fff" stroke-miterlimit="10" stroke-width="0.5" opacity="0.5"/></g><g transform="translate(162.5 395.296)"><path d="M1786.54,722.19H1629.15A10.187,10.187,0,0,1,1618.96,712V620.62a10.187,10.187,0,0,1,10.19-10.19h157.39a10.187,10.187,0,0,1,10.19,10.19V712A10.187,10.187,0,0,1,1786.54,722.19Z" transform="translate(-1618.96 -610.43)" fill="none" stroke="#fff" stroke-miterlimit="10" stroke-width="0.462" opacity="0.5"/></g><g transform="translate(39.76 558.526)"><path d="M1784.38,858.33H1503.94a7.725,7.725,0,0,1-7.72-7.72V781.38a7.725,7.725,0,0,1,7.72-7.72h280.44a7.725,7.725,0,0,1,7.72,7.72v69.23A7.724,7.724,0,0,1,1784.38,858.33Z" transform="translate(-1496.22 -773.66)" fill="none" stroke="#fff" stroke-miterlimit="10" stroke-width="0.35" opacity="0.5"/></g><g transform="translate(39.76 233.556)" opacity="0.5"><line x2="142.47" fill="none" stroke-dasharray="2.812" stroke-linecap="round" stroke-linejoin="round" stroke-miterlimit="10" stroke-width="1.406" stroke="#fff"/><line x2="67.49" transform="translate(167.47)" fill="none" stroke-dasharray="2.812" stroke-linecap="round" stroke-linejoin="round" stroke-miterlimit="10" stroke-width="1.406" stroke="#fff"/></g><line x2="157.14" transform="translate(128.55 253.066)" fill="none" opacity="0.5" stroke-linecap="round" stroke-linejoin="round" stroke-miterlimit="10" stroke-width="1.406" stroke-dasharray="2.812" stroke="#fff"/><line x2="79.85" transform="translate(39.76 253.066)" fill="none" opacity="0.5" stroke-linecap="round" stroke-linejoin="round" stroke-miterlimit="10" stroke-width="1.406" stroke-dasharray="2.812" stroke="#fff"/><line x2="42.08" transform="translate(289.7 233.556)" fill="none" opacity="0.5" stroke-linecap="round" stroke-linejoin="round" stroke-miterlimit="10" stroke-width="1.406" stroke-dasharray="2.812" stroke="#fff"/><line x2="34.85" transform="translate(296.93 253.206)" fill="none" opacity="0.5" stroke-linecap="round" stroke-linejoin="round" stroke-miterlimit="10" stroke-width="1.406" stroke-dasharray="2.812" stroke="#fff"/><g transform="translate(39.76 270.506)" opacity="0.5"><line x2="142.47" fill="none" stroke-dasharray="2.812" stroke-linecap="round" stroke-linejoin="round" stroke-miterlimit="10" stroke-width="1.406" stroke="#fff"/><line x2="67.49" transform="translate(167.47)" fill="none" stroke-dasharray="2.812" stroke-linecap="round" stroke-linejoin="round" stroke-miterlimit="10" stroke-width="1.406" stroke="#fff"/></g><line x2="157.14" transform="translate(128.55 290.006)" fill="none" opacity="0.5" stroke-linecap="round" stroke-linejoin="round" stroke-miterlimit="10" stroke-width="1.406" stroke-dasharray="2.812" stroke="#fff"/><line x2="79.85" transform="translate(39.76 290.006)" fill="none" opacity="0.5" stroke-linecap="round" stroke-linejoin="round" stroke-miterlimit="10" stroke-width="1.406" stroke-dasharray="2.812" stroke="#fff"/><line x2="42.08" transform="translate(289.7 270.506)" fill="none" opacity="0.5" stroke-linecap="round" stroke-linejoin="round" stroke-miterlimit="10" stroke-width="1.406" stroke-dasharray="2.812" stroke="#fff"/><line x2="34.85" transform="translate(296.93 290.156)" fill="none" opacity="0.5" stroke-linecap="round" stroke-linejoin="round" stroke-miterlimit="10" stroke-width="1.406" stroke-dasharray="2.812" stroke="#fff"/><g transform="translate(39.76 307.446)" opacity="0.5"><line x2="155.24" fill="none" stroke-dasharray="2.812" stroke-linecap="round" stroke-linejoin="round" stroke-miterlimit="10" stroke-width="1.406" stroke="#fff"/><line x2="67.49" transform="translate(167.47)" fill="none" stroke-dasharray="2.812" stroke-linecap="round" stroke-linejoin="round" stroke-miterlimit="10" stroke-width="1.406" stroke="#fff"/></g><line x2="157.14" transform="translate(128.55 326.946)" fill="none" opacity="0.5" stroke-linecap="round" stroke-linejoin="round" stroke-miterlimit="10" stroke-width="1.406" stroke-dasharray="2.812" stroke="#fff"/><line x2="79.85" transform="translate(39.76 326.946)" fill="none" opacity="0.5" stroke-linecap="round" stroke-linejoin="round" stroke-miterlimit="10" stroke-width="1.406" stroke-dasharray="2.812" stroke="#fff"/><line x2="42.08" transform="translate(289.7 307.446)" fill="none" opacity="0.5" stroke-linecap="round" stroke-linejoin="round" stroke-miterlimit="10" stroke-width="1.406" stroke-dasharray="2.812" stroke="#fff"/><line x2="34.85" transform="translate(296.93 327.096)" fill="none" opacity="0.5" stroke-linecap="round" stroke-linejoin="round" stroke-miterlimit="10" stroke-width="1.406" stroke-dasharray="2.812" stroke="#fff"/><g transform="translate(39.76 344.396)" opacity="0.5"><line x2="55.1" fill="none" stroke-dasharray="2.812" stroke-linecap="round" stroke-linejoin="round" stroke-miterlimit="10" stroke-width="1.406" stroke="#fff"/><line x2="164.8" transform="translate(70.16)" fill="none" stroke-dasharray="2.812" stroke-linecap="round" stroke-linejoin="round" stroke-miterlimit="10" stroke-width="1.406" stroke="#fff"/></g><line x2="157.14" transform="translate(128.55 363.896)" fill="none" opacity="0.5" stroke-linecap="round" stroke-linejoin="round" stroke-miterlimit="10" stroke-width="1.406" stroke-dasharray="2.812" stroke="#fff"/><line x2="79.85" transform="translate(39.76 363.896)" fill="none" opacity="0.5" stroke-linecap="round" stroke-linejoin="round" stroke-miterlimit="10" stroke-width="1.406" stroke-dasharray="2.812" stroke="#fff"/><line x2="42.08" transform="translate(289.7 344.396)" fill="none" opacity="0.5" stroke-linecap="round" stroke-linejoin="round" stroke-miterlimit="10" stroke-width="1.406" stroke-dasharray="2.812" stroke="#fff"/><line x2="34.85" transform="translate(296.93 364.046)" fill="none" opacity="0.5" stroke-linecap="round" stroke-linejoin="round" stroke-miterlimit="10" stroke-width="1.406" stroke-dasharray="2.812" stroke="#fff"/><g transform="translate(39.76 381.336)" opacity="0.5"><line x2="142.47" fill="none" stroke-dasharray="2.812" stroke-linecap="round" stroke-linejoin="round" stroke-miterlimit="10" stroke-width="1.406" stroke="#fff"/><line x2="67.49" transform="translate(167.47)" fill="none" stroke-dasharray="2.812" stroke-linecap="round" stroke-linejoin="round" stroke-miterlimit="10" stroke-width="1.406" stroke="#fff"/></g><line x2="46.2" transform="translate(39.76 418.276)" fill="none" opacity="0.5" stroke-linecap="round" stroke-linejoin="round" stroke-miterlimit="10" stroke-width="1.406" stroke-dasharray="2.812" stroke="#fff"/><line x2="42.08" transform="translate(289.7 381.336)" fill="none" opacity="0.5" stroke-linecap="round" stroke-linejoin="round" stroke-miterlimit="10" stroke-width="1.406" stroke-dasharray="2.812" stroke="#fff"/><line x2="110.2" transform="translate(39.76 435.726)" fill="none" opacity="0.5" stroke-linecap="round" stroke-linejoin="round" stroke-miterlimit="10" stroke-width="1.406" stroke-dasharray="2.812" stroke="#fff"/><line x2="60.13" transform="translate(93.18 418.276)" fill="none" opacity="0.5" stroke-linecap="round" stroke-linejoin="round" stroke-miterlimit="10" stroke-width="1.406" stroke-dasharray="2.812" stroke="#fff"/><line x2="104.51" transform="translate(39.76 455.226)" fill="none" opacity="0.5" stroke-linecap="round" stroke-linejoin="round" stroke-miterlimit="10" stroke-width="1.406" stroke-dasharray="2.812" stroke="#fff"/><g transform="translate(39.76 472.666)" opacity="0.5"><line x2="30.08" fill="none" stroke-dasharray="2.812" stroke-linecap="round" stroke-linejoin="round" stroke-miterlimit="10" stroke-width="1.406" stroke="#fff"/><line x2="57.94" transform="translate(52.26)" fill="none" stroke-dasharray="2.812" stroke-linecap="round" stroke-linejoin="round" stroke-miterlimit="10" stroke-width="1.406" stroke="#fff"/></g><line x2="109.72" transform="translate(39.76 492.166)" fill="none" opacity="0.5" stroke-linecap="round" stroke-linejoin="round" stroke-miterlimit="10" stroke-width="1.406" stroke-dasharray="2.812" stroke="#fff"/><g transform="translate(39.76 521.996)" opacity="0.5"><line x2="142.47" fill="none" stroke-dasharray="2.812" stroke-linecap="round" stroke-linejoin="round" stroke-miterlimit="10" stroke-width="1.406" stroke="#fff"/><line x2="67.49" transform="translate(167.47)" fill="none" stroke-dasharray="2.812" stroke-linecap="round" stroke-linejoin="round" stroke-miterlimit="10" stroke-width="1.406" stroke="#fff"/></g><line x2="157.14" transform="translate(128.55 541.496)" fill="none" opacity="0.5" stroke-linecap="round" stroke-linejoin="round" stroke-miterlimit="10" stroke-width="1.406" stroke-dasharray="2.812" stroke="#fff"/><line x2="79.85" transform="translate(39.76 541.496)" fill="none" opacity="0.5" stroke-linecap="round" stroke-linejoin="round" stroke-miterlimit="10" stroke-width="1.406" stroke-dasharray="2.812" stroke="#fff"/><line x2="42.08" transform="translate(289.7 521.996)" fill="none" opacity="0.5" stroke-linecap="round" stroke-linejoin="round" stroke-miterlimit="10" stroke-width="1.406" stroke-dasharray="2.812" stroke="#fff"/><line x2="34.85" transform="translate(296.93 541.646)" fill="none" opacity="0.5" stroke-linecap="round" stroke-linejoin="round" stroke-miterlimit="10" stroke-width="1.406" stroke-dasharray="2.812" stroke="#fff"/></g><g transform="translate(758.26 358.93)"><g transform="translate(23.733 2.306)"><text transform="translate(0 42)" fill="#fff" font-size="39.54" font-family="OpenSans-Bold, Open Sans" font-weight="700"><tspan x="0" y="0">{ }</tspan></text></g><g transform="translate(78.948 14.236)"><text transform="translate(0 36)" fill="#fff" font-size="34" font-family="OpenSans-Bold, Open Sans" font-weight="700"><tspan x="0" y="0">&lt; / &gt;</tspan></text></g><path d="M1167.31,528.61H1025.23a13.486,13.486,0,0,0-13.45,13.45v38.31a13.486,13.486,0,0,0,13.45,13.45h111.59l.12,21.01,17.45-21.01h12.92a13.486,13.486,0,0,0,13.45-13.45V542.06A13.493,13.493,0,0,0,1167.31,528.61Z" transform="translate(-1011.78 -528.61)" fill="none" stroke="#fff" stroke-miterlimit="10" stroke-width="0.429" opacity="0.5"/></g><g transform="translate(980.624 125.9)"><g transform="translate(26.58 5.464)"><text transform="translate(0 36)" fill="#fff" font-size="34.13" font-family="OpenSans-Bold, Open Sans" font-weight="700"><tspan x="0" y="0">010101</tspan></text></g><path d="M1389.68,295.58H1247.6a13.486,13.486,0,0,0-13.45,13.45v38.31a13.486,13.486,0,0,0,13.45,13.45h111.59l.12,21.01,17.45-21.01h12.92a13.486,13.486,0,0,0,13.45-13.45V309.03A13.486,13.486,0,0,0,1389.68,295.58Z" transform="translate(-1234.15 -295.58)" fill="none" stroke="#fff" stroke-miterlimit="10" stroke-width="0.429" opacity="0.5"/></g><g transform="translate(842.748 209.2)"><g transform="translate(24.349 5.463)"><text transform="translate(0 36)" fill="#fff" font-size="34.13" font-family="OpenSans-Bold, Open Sans" font-weight="700"><tspan x="0" y="0">ABC</tspan></text></g><path d="M1109.72,378.88h91.57a13.486,13.486,0,0,1,13.45,13.45v38.31a13.486,13.486,0,0,1-13.45,13.45h-8.96l-.12,21.01-17.45-21.01h-65.04a13.486,13.486,0,0,1-13.45-13.45V392.33A13.48,13.48,0,0,1,1109.72,378.88Z" transform="translate(-1096.27 -378.88)" fill="none" stroke="#fff" stroke-miterlimit="10" stroke-width="0.429" opacity="0.5"/></g><path d="M1582.86,373.13a35.317,35.317,0,0,0-13.42-25.98,30.061,30.061,0,0,0-3-2.15,34.873,34.873,0,0,0-17.23-5.45,1.6,1.6,0,0,0-.62-.13,1.511,1.511,0,0,0-.56.11,34.617,34.617,0,0,0-5.58.3l-.12.02a34.193,34.193,0,0,0-10.88,3.44,32.5,32.5,0,0,0-3.22,1.82,35.5,35.5,0,0,0-16.25,28.04c-.02.61-.05,1.21-.05,1.82s.02,1.21.05,1.83a35.286,35.286,0,0,0,10.06,22.96,32.021,32.021,0,0,0,2.65,2.45,35.251,35.251,0,0,0,15.18,7.44l.16.03a34.353,34.353,0,0,0,3.96.6,13.706,13.706,0,0,0,4.61.83,13.871,13.871,0,0,0,5.94-1.39,34.39,34.39,0,0,0,5.25-1.47l.34-.14h0a34.648,34.648,0,0,0,10.15-6.01,24.9,24.9,0,0,0,2.66-2.49,35.291,35.291,0,0,0,9.94-22.83c.02-.61.05-1.21.05-1.82C1582.9,374.36,1582.88,373.76,1582.86,373.13Zm-3.07.14a1.769,1.769,0,0,0,.01.23h-9.69a49,49,0,0,0-5.28-20.97h.01a23.026,23.026,0,0,0,2.65-3.01c.01.01.02.02.03.02A32.315,32.315,0,0,1,1579.79,373.27Zm-45.25,22.58h0a36.757,36.757,0,0,1,12.51-2.2v13.73c-.25,0-.49-.02-.73-.03C1541.58,406.3,1537.42,402.05,1534.54,395.85ZM1563,349.48c0,.01-.01.01,0,0a26.419,26.419,0,0,0-4.22-4.89,31.618,31.618,0,0,1,5.88,2.93A16.381,16.381,0,0,1,1563,349.48Zm-12.88-5.47c3.92.58,7.48,3.37,10.3,7.66a19.316,19.316,0,0,1-10.3,3.6Zm-3.07,0V355.2a19.3,19.3,0,0,1-9.97-4.02l-.01-.01C1539.83,347.16,1543.28,344.57,1547.05,344.01Zm-11.77,10.2a23.087,23.087,0,0,0,11.77,4.5v14.8h-16.51A46.2,46.2,0,0,1,1535.28,354.21Zm11.77,22.78v13.18a39.908,39.908,0,0,0-13.8,2.47,50.1,50.1,0,0,1-2.74-15.65Zm3.07,30.26V393.79a35.267,35.267,0,0,1,12.06,2.96c-2.62,5.26-6.2,8.98-10.26,10.32C1551.31,407.15,1550.72,407.2,1550.12,407.25Zm15.07-8.93a27.256,27.256,0,0,1,2.59,1.83,31.634,31.634,0,0,1-6.5,4.14A31.263,31.263,0,0,0,1565.19,398.32Zm-1.61-4.72h0a38.478,38.478,0,0,0-13.46-3.29V376.99h16.54A49.864,49.864,0,0,1,1563.58,393.6Zm-13.46-20.1V358.76a22.711,22.711,0,0,0,12.03-4.06,46.753,46.753,0,0,1,4.48,18.8Zm-10.24-30.08a23.678,23.678,0,0,0-5.28,5.45l-.01-.01a18.19,18.19,0,0,1-2.01-2.7c.08-.04.16-.1.24-.14A32.371,32.371,0,0,1,1539.88,343.42Zm-10.31,4.49a21.6,21.6,0,0,0,3.09,3.97c.01.01.02.02.03.02a48.576,48.576,0,0,0-5.63,21.6h-12.03a1.619,1.619,0,0,1,.01-.22A32.392,32.392,0,0,1,1529.57,347.91Zm-14.51,29.08h11.97a52.484,52.484,0,0,0,3.09,17.01c-.01.01-.03.01-.04.02a29.367,29.367,0,0,0-5.78,3.68l-.08-.08A32.277,32.277,0,0,1,1515.06,376.99Zm11.85,23.07a27.43,27.43,0,0,1,4.52-2.88h.01a31.1,31.1,0,0,0,5.73,8.55A33.028,33.028,0,0,1,1526.91,400.06Zm43.77-2.54c-.1.11-.22.22-.32.32a28.778,28.778,0,0,0-3.76-2.66,51.924,51.924,0,0,0,3.53-18.19h9.62A32.189,32.189,0,0,1,1570.68,397.52Z" transform="translate(-253.532 -169.68)" fill="#fff" opacity="0.5"/><g transform="translate(493.58)" opacity="0.38"><circle cx="10.21" cy="10.21" r="10.21" transform="translate(1155.5 385.51)" fill="none" stroke="#fff" stroke-miterlimit="10" stroke-width="0.906"/><path d="M1426.65,434.94a10.21,10.21,0,1,1-10.21-10.21A10.208,10.208,0,0,1,1426.65,434.94Z" transform="translate(-747.12 -169.68)" fill="none" stroke="#fff" stroke-miterlimit="10" stroke-width="0.906"/><circle cx="10.21" cy="10.21" r="10.21" transform="translate(310.01 278.68)" fill="none" stroke="#fff" stroke-miterlimit="10" stroke-width="0.906"/><circle cx="10.21" cy="10.21" r="10.21" transform="translate(231.81 169.75)" fill="none" stroke="#fff" stroke-miterlimit="10" stroke-width="0.906"/><circle cx="10.21" cy="10.21" r="10.21" transform="translate(657.95 629.62)" fill="none" stroke="#fff" stroke-miterlimit="10" stroke-width="0.906"/><path d="M878.94,727.77a10.21,10.21,0,1,1-10.21-10.21A10.209,10.209,0,0,1,878.94,727.77Z" transform="translate(-747.12 -169.68)" fill="none" stroke="#fff" stroke-miterlimit="10" stroke-width="0.906"/><path d="M1218.38,662.36a10.21,10.21,0,1,1-10.21-10.21A10.208,10.208,0,0,1,1218.38,662.36Z" transform="translate(-747.12 -169.68)" fill="none" stroke="#fff" stroke-miterlimit="10" stroke-width="0.906"/><circle cx="10.21" cy="10.21" r="10.21" transform="translate(323.57 71.54)" fill="none" stroke="#fff" stroke-miterlimit="10" stroke-width="0.906"/><path d="M1874.81,303.91a10.21,10.21,0,1,1-10.21-10.21A10.208,10.208,0,0,1,1874.81,303.91Z" transform="translate(-747.12 -169.68)" fill="none" stroke="#fff" stroke-miterlimit="10" stroke-width="0.906"/><path d="M1573.85,237.3h-7.53v-7.53a2.2,2.2,0,1,0-4.4,0v7.53h-7.53a2.2,2.2,0,0,0,0,4.4h7.53v7.53a2.2,2.2,0,1,0,4.4,0V241.7h7.53a2.2,2.2,0,0,0,0-4.4Z" transform="translate(-747.12 -169.68)" fill="#fff"/><path d="M1321.14,252.18h-7.53v-7.53a2.2,2.2,0,1,0-4.4,0v7.53h-7.53a2.2,2.2,0,0,0,0,4.4h7.53v7.53a2.2,2.2,0,1,0,4.4,0v-7.53h7.53a2.2,2.2,0,0,0,0-4.4Z" transform="translate(-747.12 -169.68)" fill="#fff"/><path d="M1147.99,321.98h-7.53v-7.53a2.2,2.2,0,1,0-4.4,0v7.53h-7.53a2.2,2.2,0,0,0,0,4.4h7.53v7.53a2.2,2.2,0,1,0,4.4,0v-7.53h7.53a2.2,2.2,0,0,0,0-4.4Z" transform="translate(-747.12 -169.68)" fill="#fff"/><path d="M768.78,807.31h-7.53v-7.53a2.2,2.2,0,0,0-4.4,0v7.53h-7.53a2.2,2.2,0,0,0,0,4.4h7.53v7.53a2.2,2.2,0,0,0,4.4,0v-7.53h7.53a2.2,2.2,0,0,0,0-4.4Z" transform="translate(-747.12 -169.68)" fill="#fff"/><path d="M1028.01,754.21h-7.53v-7.53a2.2,2.2,0,1,0-4.4,0v7.53h-7.53a2.2,2.2,0,0,0,0,4.4h7.53v7.53a2.2,2.2,0,0,0,4.4,0v-7.53h7.53a2.2,2.2,0,0,0,0-4.4Z" transform="translate(-747.12 -169.68)" fill="#fff"/><path d="M1874.33,483.28h-7.53v-7.53a2.2,2.2,0,1,0-4.4,0v7.53h-7.53a2.2,2.2,0,0,0,0,4.4h7.53v7.53a2.2,2.2,0,1,0,4.4,0v-7.53h7.53a2.2,2.2,0,0,0,0-4.4Z" transform="translate(-747.12 -169.68)" fill="#fff"/><path d="M1623.37,179.41h-7.53v-7.53a2.2,2.2,0,1,0-4.4,0v7.53h-7.53a2.2,2.2,0,0,0,0,4.4h7.53v7.53a2.2,2.2,0,1,0,4.4,0v-7.53h7.53a2.2,2.2,0,0,0,0-4.4Z" transform="translate(-747.12 -169.68)" fill="#fff"/><path d="M926.87,494.96h-7.53v-7.53a2.2,2.2,0,1,0-4.4,0v7.53h-7.53a2.2,2.2,0,0,0,0,4.4h7.53v7.53a2.2,2.2,0,1,0,4.4,0v-7.53h7.53a2.2,2.2,0,0,0,0-4.4Z" transform="translate(-747.12 -169.68)" fill="#fff"/><path d="M1262.74,725.57h-7.53v-7.53a2.2,2.2,0,1,0-4.4,0v7.53h-7.53a2.2,2.2,0,0,0,0,4.4h7.53v7.53a2.2,2.2,0,1,0,4.4,0v-7.53h7.53a2.2,2.2,0,0,0,0-4.4Z" transform="translate(-747.12 -169.68)" fill="#fff"/></g><line x2="1136.8" transform="translate(532.7 826.57)" fill="none" stroke="#fff" stroke-miterlimit="10" stroke-width="2" opacity="0.5"/><line x1="147.83" transform="translate(369.64 826.57)" fill="none" stroke="#fff" stroke-miterlimit="10" stroke-width="2" opacity="0.5"/><line x1="354.48" transform="translate(0 826.57)" fill="none" stroke="#fff" stroke-miterlimit="10" stroke-width="2" opacity="0.5"/><g transform="translate(687.722 471.01)"><g transform="translate(0 213.838)"><path d="M1110.44,994.48s36.87,1.59,64.7-23.34c22.27-19.95,38.75-53.3,43.45-67.89s6.72-43.71-.32-48.58-134.52,116.47-134.52,116.47Z" transform="translate(-941.242 -854.528)" fill="#0d2e3f"/><path d="M945.53,915.62s15.36-17.38,56.83-17.32c32.29.04,138.23,29.07,138.23,29.07l-46.08,49.26Z" transform="translate(-941.242 -854.528)" fill="#0d2e3f"/><g transform="translate(168.169 122.092)"><path d="M1138.26,985.84l-21.5-9.22-7.35,13.82,9.74,8.07h16.42Z" transform="translate(-1109.41 -976.62)" fill="#ffe1bd"/><path d="M1119.15,998.51a15.046,15.046,0,0,0,12.58-5.51c5.38-6.4,2.3-9.09,5.76-9.47s18.43,6.53,33.4,4.99,19.58-3.82,20.35,1.74-1.2,26.2-19.25,25.44S1119.15,998.51,1119.15,998.51Z" transform="translate(-1109.41 -976.62)" fill="#0a1828"/></g><path d="M1002.35,922.74c23.47,14.3,120.37,46.82,120.37,46.82s3.62,24.93-17.34,32.37c0,0-116.86-32.97-144.5-45.65s-19.2-34.86-15.36-40.67S973.17,904.96,1002.35,922.74Z" transform="translate(-941.242 -854.528)" fill="#183f5b"/></g><path d="M1090.64,750.56a11.621,11.621,0,0,1,5.09,5.27,13.13,13.13,0,0,1,1.21,8.11c-1.29,7.31-2.9,18.73-4.66,30.77-2.83,19.34-6.05,40.37-8.95,48.77-.63,1.92,8.09,11.94,4.32,16.61-.08.14-1.14,39.12-1.26,39.26-.05.03-3.93,3.76-3.98,3.78-1.49.96-7.06,3.24-9.93,2-3.16-1.28-74.41,21.81-73.83,21.14,29.91-34.39,54.85-53.69,56.73-57.02,3.69-6.55,1.23-73.35,2.72-86.68.7-6.43,3.11-14.69,6.5-20.09,3.4-5.42,8.41-8.74,11.81-11.55C1081.77,746.55,1084.59,747.36,1090.64,750.56Z" transform="translate(-941.242 -640.69)" fill="#e5e5e5"/><path d="M1164.91,854.76a53.5,53.5,0,0,0-2.4,30.88c4.55,20.47-.63,21.84-.63,21.84s-24.62,17.09-48.66,19.65c-21.52,2.29-39.69,3.68-39.29-14.58l6.91,5.5c.03-1.11.06-2.17.08-3.2.78-41.04-7.78-43.12-9.88-89.07-2.18-47.14-13.64-53.39-3.32-66.77,15.28-19.79,55.78-29.86,87.87-22.28,24.11,5.68,32.05,12.08,31.85,29.92-.06,5.93-1.02,13.13-2.59,21.96C1180.87,811.06,1171.36,838.01,1164.91,854.76Z" transform="translate(-941.242 -640.69)" fill="#fff"/><g transform="translate(157.048 69.17)"><path d="M1140.09,709.86c-9.15,6.1-15.05,11.04-26.87,11.04-4.46,0-2.73-1.78-6.9-2.74,2.06,1.08-2.09,2.95-.49,3.29a6.987,6.987,0,0,1,5.55,6.44l.73,13.56,5.3,11.06,9.22-5.97,13.44-8.71-1.33-21.03C1138.73,716.81,1136.51,713.5,1140.09,709.86Z" transform="translate(-1098.29 -709.86)" fill="#ffe1bd"/><path d="M1118.22,732.92l.9,12.61-1.73,6.98-5.3-11.06-.73-13.55a6.977,6.977,0,0,0-5.55-6.44c-3.44-.74-1.79-3.26-6.68-8.44a9.765,9.765,0,0,1-.84-1.04c.6.36,1.4,5.11,12.38,6.33C1118.81,719.22,1117.64,724.77,1118.22,732.92Z" transform="translate(-1098.29 -709.86)" fill="#e8c5a0"/></g><path d="M1139.9,728.03a21.486,21.486,0,0,1,6.48,6.67,86.629,86.629,0,0,0-8.3,4.35c-3.53,2.16-20.5,14.14-20.5,14.14l-4.99-10.25S1130.3,730.72,1139.9,728.03Z" transform="translate(-941.242 -640.69)" fill="#e5e5e5"/><path d="M1112.59,742.94s-5.94,2.03-7.76,6.46c0,0-3.04-5.82.84-16.17a26.738,26.738,0,0,1,5.76-4.18Z" transform="translate(-941.242 -640.69)" fill="#e5e5e5"/><g transform="translate(82.308 269.62)"><path d="M1138.26,911.31l-114.71-1,68.29,25.48Z" transform="translate(-1023.55 -910.31)" fill="#b3c5ce"/><path d="M1091.6,938.49l49.16-4.59.37-4.05-49.98,4.7Z" transform="translate(-1023.55 -910.31)" fill="#e8f1f8"/></g><path d="M1100.95,901.89l-9.33,5.13s-9.2-6.36-18.35.56,1.89,26.47,8.66,24.51,26.55-16.61,26.55-16.61Z" transform="translate(-941.242 -640.69)" fill="#ffe1bd"/><path d="M972.71,937.28l-11.41,3.4,125.32,1.18,54.96-15.02-116.73,1.23Z" transform="translate(-941.242 -640.69)" fill="#474747" opacity="0.24"/><path d="M1145.87,896.48c-17.47,5.49-35.66,33.25-35.66,33.25l-1.6-2.57s-9.03-4.05-11.49-12.37c-.97-3.27-.86-12.91-.86-12.91s43.63-21.81,57.04-36.57c6.5-7.18,7.09-13.18,13.31-16.18-.19-.48-.37-.94-.55-1.43-6.81-19.41-6.49-47.19-9.29-61.27a44.552,44.552,0,0,1,.55-20.21,38.589,38.589,0,0,1,5.75-12.29c4.2-5.92,9.96-10.45,17.36-8.73a14.053,14.053,0,0,1,7.08,4.09,14.743,14.743,0,0,1,3.89,8.04c2.77,20.41,11.56,76.27,11.15,88.79a22.839,22.839,0,0,1-.99,6.03,17.364,17.364,0,0,1-.56,1.96C1194.62,871.89,1163.34,890.99,1145.87,896.48Z" transform="translate(-941.242 -640.69)" fill="#e5e5e5"/><g transform="translate(14.273 188.691)"><path d="M1091.6,938.49,972.56,927.6a8.414,8.414,0,0,1-7.6-7.44l-9.4-82.91a7.081,7.081,0,0,1,7.67-7.84l111.5,10.2a7.071,7.071,0,0,1,6.38,6.24Z" transform="translate(-955.515 -829.381)" fill="#d4dedf"/></g><g transform="translate(126.1)"><path d="M1084.98,675.33c-.33-.03-.15,1.86-2.79,4.92s-2.85,9.23-2.77,9.03-5.11-14.35-3.62-17.82,4.54-4.35,5.32-3.21C1081.9,669.37,1084.98,675.33,1084.98,675.33Z" transform="translate(-1067.342 -640.69)" fill="#632f00"/><path d="M1144.59,698.89a52.951,52.951,0,0,1,.23,10.11,7.489,7.489,0,0,1-.18,1.09,8.443,8.443,0,0,1-.24,1.1c-2.89,11.43-17.36,27.56-27.52,28.87a25.946,25.946,0,0,1-3.93.07c-14.15-.64-22.42-12.25-27.22-24.59-.16-.45-.32-.86-.48-1.28a113.49,113.49,0,0,1-5.96-27.39c-.09-.98-.11-1.53-.11-1.53a21.2,21.2,0,0,1,.32-9.48,7.952,7.952,0,0,1,.24-.76s.18-.05.48-.14c3.92-1.21,30.62-9.38,31.2-9.44s27.47,1.89,27.47,1.89S1143.24,685.47,1144.59,698.89Z" transform="translate(-1067.342 -640.69)" fill="#ffe1bd"/><path d="M1120.28,679.42" transform="translate(-1067.342 -640.69)" fill="#4c2e1e"/><path d="M1148.37,698.26a52.137,52.137,0,0,1,.23,10.11,7.489,7.489,0,0,1-.18,1.09c-1.84,11.43-15.82,29.19-31.55,30.6a32.1,32.1,0,0,1-3.51.31c-17.02.69-22.94-12.14-27.64-24.83-.16-.45-.32-.86-.48-1.28,0,0,5.92,9.44,8.87,9.73s-.71-3.41,7.3-6.54c5.11-2,12.84-1.81,16.45-1.36,3.33.44,9.31,2.15,11.43,2.45a2.37,2.37,0,0,0,1.22-.11c2.83-1.45,8.53-11.01,9.52-17.1C1140.44,698.96,1146.15,697.88,1148.37,698.26Z" transform="translate(-1067.342 -640.69)" fill="#8c4200"/><path d="M1067.7,661.21s.87,20.51,34.57,12.31,31.12,25.3,31.12,25.3,4.68-11.23,6.07-6.9-.11,15.46-.11,15.46,9.25,1,9.53-3.55c.17-2.72.47-41.54-6.2-50.76s-14.64-8.8-14.64-8.8-8.43-7.11-28.31-1.29-30.34-1.52-30.29-.95S1066.29,648.34,1067.7,661.21Z" transform="translate(-1067.342 -640.69)" fill="#8c4200"/></g><path d="M1132.99,691.57c-.34-1.4-6.46-1.13-10.81-.59s-15.92,2-18.35,3.43-2.34,2.39-3.61,2.53c-1.24.14-1.29-.8-4-1.58s-9.39.06-13.73.61-8.48,1.39-8.46,2.82.66,3.92,1.52,4.29.86.3,3.99,5.87c1.75,3.11,4.58,4.84,10.21,3.75,7.16-1.37,7.9-7.29,8.57-9.77s1.19-2.87,2.28-3.01c1.11-.14,1.82.09,3.08,2.33s2,7.48,9.28,7.53c9.52.06,13.77-2.46,15.3-6.96,2.08-6.1,1.67-6.11,2.41-6.68.34-.26,2.44-1.01,2.5-1.81A8.817,8.817,0,0,0,1132.99,691.57Zm-37.06,13.75c-.36,3.09-2.61,5.98-7.33,6.58-4.4.55-6.32-1.07-8.49-5.07-1.89-3.48-1.86-6.3-1.07-7.3s3.15-1.05,8.59-1.49,7.26-.58,8.06,1.13A15.4,15.4,0,0,1,1095.93,705.32Zm31.26-4.41c-1.11,4.41-3.42,6.59-9.44,7.32-8.53,1.04-10.05-1.35-11.17-4.25a15.516,15.516,0,0,1-1.3-6.03c.35-1.85,2.15-2.16,7.53-3.09s12.58-2.08,13.59-1.3C1127.43,694.34,1128.16,697.07,1127.19,700.91Z" transform="translate(-941.242 -640.69)" fill="#282c3b"/><g transform="translate(59.746 322.76)"><path d="M1054.3,971.98l21.79-8.53,6.9,14.05-9.98,7.75-16.42-.52Z" transform="translate(-1000.987 -963.45)" fill="#ffe1bd"/><path d="M1073.01,985.25a15.061,15.061,0,0,1-12.4-5.9c-5.17-6.57-2.01-9.16-5.46-9.65s-18.63,5.94-33.55,3.93-19.45-4.44-20.39,1.09.37,26.23,18.43,26.03S1073.01,985.25,1073.01,985.25Z" transform="translate(-1000.987 -963.45)" fill="#0a1828"/></g><path d="M1068.63,956.12s55.06-44.78,78.1-68.58,37.63-47.06,64.51-37.73-6.91,59.31-31.49,78.85-85.28,62.66-85.28,62.66S1061.91,979.77,1068.63,956.12Z" transform="translate(-941.242 -640.69)" fill="#183f5b"/><circle cx="9.69" cy="9.69" r="9.69" transform="translate(67.099 233.55)" fill="#b4bcc5"/></g><g transform="translate(977.71 177.732)"><path d="M1290.06,400.28s-1.62-14.95-18.62-11.69-33.3,18.24-29.86,38.57-7.65,20.5-10.33,19.38c0,0,13.46,14.21,31.25,5.8s16.89-39.16,16.89-39.16Z" transform="translate(-1231.25 -347.412)" fill="#153851"/><path d="M1331.62,392.29s18.12,10.06,4.43,46.05c-4.37,11.49-31.95-9.13-31.95-9.13Z" transform="translate(-1231.25 -347.412)" fill="#153851"/><path d="M1343.03,964.9s2.32,10.58,2.15,19.01c-1.07,5.85.01,7.57.01,7.57l22.19-1.89s-9.81-4.82-9.12-27.7S1343.03,964.9,1343.03,964.9Z" transform="translate(-1231.25 -347.412)" fill="#fc9"/><path d="M1344.9,985.68s9.65,3.58,19.18.88a90.511,90.511,0,0,0,29.3,8.51c10.19,1.29,8.39,9.68-9.03,8.52a216.928,216.928,0,0,0-33.44.03c-3.87.39-10.06.9-10.32-1.81S1341.76,984.79,1344.9,985.68Z" transform="translate(-1231.25 -347.412)" fill="#fff"/><path d="M1274.93,964.9s2.32,10.58,2.15,19.01c-1.07,5.85.01,7.57.01,7.57l22.19-1.89s-9.81-4.82-9.12-27.7S1274.93,964.9,1274.93,964.9Z" transform="translate(-1231.25 -347.412)" fill="#fc9"/><path d="M1276.8,985.68s9.65,3.58,19.18.88a90.511,90.511,0,0,0,29.3,8.51c10.19,1.29,8.39,9.68-9.03,8.52a216.928,216.928,0,0,0-33.44.03c-3.87.39-10.07.9-10.32-1.81C1272.22,999.09,1273.66,984.79,1276.8,985.68Z" transform="translate(-1231.25 -347.412)" fill="#fff"/><path d="M1355.2,653.85s10.18,131,11.03,150.47,1.38,42.32.53,54.17-2.89,111.93-2.89,111.93-18.21,8.33-26.67.62c0,0-4.82-124.82-9.06-143.45s-20.26-96.93-20.26-96.93l19.08-96.51Z" transform="translate(-1231.25 -347.412)" fill="#10354c"/><path d="M1279.03,815.33c3.39-27.94-2.29-125.1-2.04-149.08s67.75-11.78,67.75-11.78-21.69,124.46-24.23,144.78-5.4,42.32-6.67,61.79-17.09,112.3-17.09,112.3-21.5,5.63-24.31-1.4C1266.58,935.96,1279.03,815.33,1279.03,815.33Z" transform="translate(-1231.25 -347.412)" fill="#183f5b"/><path d="M1760.18,976.61c-.46,2.59,4.45,9.46-2.14,15.23s-21.55,11.84-11.63,12.07,19.43-2.07,24.48-4.56,1.02-6.41,7.27-8.38c8.24-2.6,8.15-3.13,4.16-12.11C1776.83,966.51,1761.66,968.22,1760.18,976.61Z" transform="translate(-1231.25 -347.412)" fill="#0a1828"/><path d="M1695.21,560.07a48.626,48.626,0,0,0-2.18,28.03c4.13,18.58-.57,19.83-.57,19.83s-25.18,15.98-46.13,22.52c-15.01,4.67-27.8,3.88-27.45-12.69l.01-.23c.03-1.01.05-1.97.07-2.91.71-37.25-7.06-39.14-8.97-80.85-1.98-42.79,9.46-66.65,20.79-77,11.35-10.33,26.83-10.71,55.96-3.83,21.88,5.15,29.09,10.96,28.91,27.15a126.8,126.8,0,0,1-2.36,19.94C1709.69,520.41,1701.06,544.87,1695.21,560.07Z" transform="translate(-1231.25 -347.412)" fill="#ccd6e7"/><path d="M1642.36,468.44s-22.7,74.41-18.16,110.05l8.36,15.21,9.14-16.59s-7.43-71.26,6.8-107.42Z" transform="translate(-1231.25 -347.412)" fill="#12374f"/><path d="M1695.21,560.07a48.626,48.626,0,0,0-2.18,28.03c4.13,18.58-.57,19.83-.57,19.83s-25.18,15.98-46.13,22.52l-19.57-1.86-7.83-6.16-.03-4.91c.03-1.01.05-1.97.07-2.91,4.47.43,14.64.95,29.55-.77a122.476,122.476,0,0,0,28.98-7.26,11.283,11.283,0,0,0,7.12-12.55c-1.27-7.33-2.77-17.83-2.71-25.98.06-8.2,3.86-22.06,6.96-32.06a64.607,64.607,0,0,0,2.61-23.7,211.882,211.882,0,0,1,.02-27.02l15.51-8.4,8.64,3.22a126.8,126.8,0,0,1-2.36,19.94C1709.69,520.41,1701.06,544.87,1695.21,560.07Z" transform="translate(-1231.25 -347.412)" fill="#a3b4d8"/><path d="M1695.53,639.12c1.79.29,6.38-7.75,6.38-7.75l-1.92-2.55a8.577,8.577,0,0,0-4.33-3.03l-.31-.1a3.7,3.7,0,0,0-4.15,1.42c-1.32,1.95-3.35,4.18-5.71,4.09h-.04a.548.548,0,0,1-.25.04C1683.11,631.29,1693.73,638.83,1695.53,639.12Z" transform="translate(-1231.25 -347.412)" fill="#f4d5b5"/><g transform="translate(390.41)"><path d="M1624.83,380.23s-1.94,5.43,1,9.74l12.01-16.26-8.38-.08Z" transform="translate(-1621.66 -347.412)" fill="#153851"/><path d="M1690.06,401.73c-.53,20.97-18.62,33.12-18.62,33.12l1.21,19.08-12.2,7.91-8.37,5.42-4.81-10.04-.66-12.3a6.338,6.338,0,0,0-5.04-5.85c-3.12-.67-7.46-2.49-11.9-7.19a8.9,8.9,0,0,1-.76-.94l-.03-.02c-7.93-10.8-10.93-52.18,16.21-63.92C1673.13,354.84,1690.61,380.74,1690.06,401.73Z" transform="translate(-1621.66 -347.412)" fill="#ffe1bd"/><path d="M1659.63,450.4l.82,11.45-8.37,5.42-4.81-10.04-.66-12.3a6.338,6.338,0,0,0-5.04-5.85c-3.12-.67-7.46-2.49-11.9-7.19a8.9,8.9,0,0,1-.76-.94,45.168,45.168,0,0,0,17.07,5.28A15.375,15.375,0,0,1,1659.63,450.4Z" transform="translate(-1621.66 -347.412)" fill="#e8c5a0"/><path d="M1660.78,408.2c1.06.43,2.07-1.21,2.07-1.21s5.89-13.22,7.91-15.24c3.62-3.67,12.16-3.33,12.83,8.01.53,8.78-9.84,27.5-13.02,32.99a2.087,2.087,0,0,0,.53,2.65,2.527,2.527,0,0,0,1.16.43h.14a2,2,0,0,0,1.35-.48c6.7-5.89,36.23-34.2,12.78-60.83,0,0-18.62,1.21-21.47,10.18a186.314,186.314,0,0,0-4.87,21.18S1659.68,407.71,1660.78,408.2Z" transform="translate(-1621.66 -347.412)" fill="#153851"/><path d="M1624.83,380.23s16.29-12.7,41.04,2.77l20.26-5.17s.85-.28.4-3.31-2.69-32.83-38.18-26.13C1627.95,352.24,1615.45,366.39,1624.83,380.23Z" transform="translate(-1621.66 -347.412)" fill="#153851"/></g><path d="M1640.79,462.11l.12.97a19.185,19.185,0,0,0,1.45,5.36h0l6.14,1.26,5.35-3.99-6.14-7.14-.95.24a13.568,13.568,0,0,0-5.89,3.21Z" transform="translate(-1231.25 -347.412)" fill="#12374f"/><path d="M1672.5,445.04a19.456,19.456,0,0,1,5.88,6.05,76.605,76.605,0,0,0-7.53,3.94c-3.2,1.96-18.6,12.83-18.6,12.83l-4.53-9.3C1647.72,458.57,1663.8,447.48,1672.5,445.04Z" transform="translate(-1231.25 -347.412)" fill="#a3b4d8"/><path d="M1647.72,458.57s-5.39,1.84-7.04,5.87c0,0-2.76-5.28.77-14.68a23.989,23.989,0,0,1,5.23-3.79Z" transform="translate(-1231.25 -347.412)" fill="#a3b4d8"/><path d="M1690.55,625.98s-2.86,3.59-3.71,4.06-.99-.53-.67-1.23S1690.42,625.03,1690.55,625.98Z" transform="translate(-1231.25 -347.412)" fill="#e5bb98"/><path d="M1672.27,435.84h.14a2,2,0,0,0,1.35-.48c6.7-5.89,36.23-34.2,12.78-60.83a27.27,27.27,0,0,1,.67,8.49C1687.22,383.02,1702.17,407.18,1672.27,435.84Z" transform="translate(-1231.25 -347.412)" fill="#153851"/><path d="M1724.72,713.83s17.56-58.06-32.27-105.9c0,0-26.71,11.96-48.09,13.4-16.84,1.14-25.39-.61-25.39-.61s-1.42,51.58-1.48,79.39Z" transform="translate(-1231.25 -347.412)" fill="#183f5b"/><path d="M1612.95,810.27c-1.08-25.96,18.14-23.18,29.39-4.28,36.04,60.5-.14,136.36-4.02,180.13-4.24-7.04-12.28-9.43-14.17-9.28a6.74,6.74,0,0,0-4.73,2.65C1620.04,925.8,1614.11,838.03,1612.95,810.27Z" transform="translate(-1231.25 -347.412)" fill="#183f5b"/><path d="M1641.37,813.09c-3.24,10.6-31.12,22.87-28.2-15.72,1.29-17.11,4.74-111.62,5.4-120.72s2.19-22.43,6.59-24.09c22.02-8.31,52.9,19.36,47.11,53.56C1668.4,728.99,1648.09,791.1,1641.37,813.09Z" transform="translate(-1231.25 -347.412)" fill="#183f5b"/><path d="M1619.5,980.27c-1.16,2.25-6.69,7.44-14.35,10.87s-23.9,5.03-14.88,8.04,19.54,1.19,24.87.33a107.368,107.368,0,0,1,16.77-1.01c8.29-.06,8.35-.57,7.24-9.91C1637.61,975.73,1623.23,973.01,1619.5,980.27Z" transform="translate(-1231.25 -347.412)" fill="#0a1828"/><path d="M1705.33,816.19c-8.69-24.49,10.5-27.49,26.82-12.75,52.27,47.19,40.06,130.35,49.25,173.31-5.21,3.57-13.49,4.85-16.39,4.69a5.886,5.886,0,0,1-4.47-2.28C1745.32,927.67,1714.62,842.37,1705.33,816.19Z" transform="translate(-1231.25 -347.412)" fill="#183f5b"/><path d="M1733.69,809.18c.98,11.04-20.25,32.88-32.04-3.98-5.23-16.34-37.53-105.22-40.34-113.91s-6.4-21.6-2.94-24.8c17.28-15.97,56.3-1.93,63.78,31.95C1727.15,721.09,1731.65,786.28,1733.69,809.18Z" transform="translate(-1231.25 -347.412)" fill="#183f5b"/><path d="M1336.1,500.88l32.41,8.72s-3.6,27.29,0,35.4H1346s-3.91,11.7-6,17.1,15.27,77.5,17.97,94.6c0,0-9.29,15.93-83.46,7.72,0,0-2.79-17.25,6.76-43.77,8.37-23.25-28.98-82.19-28.98-82.19s6.16-42.68,42.4-50.19C1315.92,483.88,1316.12,495.51,1336.1,500.88Z" transform="translate(-1231.25 -347.412)" fill="#fff"/><path d="M1330.25,397.97s16.19,47.77,7.65,63.3c-6.79,12.35-21.61,10.8-21.61,10.8v28.81a7.087,7.087,0,0,1-4.28,1.65c-4.73.27-17.33-7.95-17.33-7.95V427.96Z" transform="translate(-1231.25 -347.412)" fill="#ffe1bd"/><path d="M1250.5,554.02s-15.38,70.85-9.74,75.43,66.7,4.59,72.8,5.83,36.09,5.47,49.43-5.35c1.72-1.4-17.14,2.07-19.18-2.98s-8.47-6.88-8.47-6.88l-20.67,6.09s-46.63-8.8-49.79-11.69,13.66-60.16,13.66-60.16Z" transform="translate(-1231.25 -347.412)" fill="#ffe1bd"/><path d="M1248.02,552.35s10.68-48.34,26.74-54.73,23.14,17.5,16.4,40.43-8.6,31.36-8.6,31.36S1260.43,569.31,1248.02,552.35Z" transform="translate(-1231.25 -347.412)" fill="#f2f2f2"/><path d="M1737.86,532.92s13.46,90.32,6.09,95.82-84.24,9.69-92.01,10.94-39,9.63-55.3-4.73c-2.11-1.85,16.82-2.77,19.66-9.05s11.06-8.26,11.06-8.26l23.65,10.46s50.9-20.17,64.65-22.35c-6.22-8.53-14.66-67.55-14.66-67.55Z" transform="translate(-1231.25 -347.412)" fill="#ffe1bd"/><path d="M1742.15,536.62s-10.51-66.15-30.48-75.06-34.1,19.66-26.75,49,9.26,40.11,9.26,40.11S1724.13,553.66,1742.15,536.62Z" transform="translate(-1231.25 -347.412)" fill="#ccd6e7"/><g transform="translate(90.28 138.068)"><g transform="translate(0 5.69)"><path d="M1627.77,637.27H1334.85a13.315,13.315,0,0,1-13.32-13.32V504.49a13.315,13.315,0,0,1,13.32-13.32h292.92a13.315,13.315,0,0,1,13.32,13.32V623.95A13.315,13.315,0,0,1,1627.77,637.27Z" transform="translate(-1321.53 -491.17)" fill="#7f1e00" opacity="0.1"/></g><g transform="translate(5.69)"><path d="M1633.46,631.58H1340.54a13.315,13.315,0,0,1-13.32-13.32V498.8a13.315,13.315,0,0,1,13.32-13.32h292.92a13.315,13.315,0,0,1,13.32,13.32V618.26A13.315,13.315,0,0,1,1633.46,631.58Z" transform="translate(-1327.22 -485.48)" fill="#fff"/></g><g transform="translate(33.52 15.12)"><path d="M1363.1,500.6l-8.05,8.57,8.04,8.56" transform="translate(-1355.05 -500.6)" fill="none" stroke="#34b77e" stroke-linecap="round" stroke-linejoin="round" stroke-miterlimit="10" stroke-width="0.83"/><path d="M1383.33,500.6l8.04,8.57-8.03,8.56" transform="translate(-1355.05 -500.6)" fill="none" stroke="#34b77e" stroke-linecap="round" stroke-linejoin="round" stroke-miterlimit="10" stroke-width="0.83"/><line y1="18.6" x2="6.38" transform="translate(14.76)" stroke-width="0.83" stroke="#34b77e" stroke-linecap="round" stroke-linejoin="round" stroke-miterlimit="10" fill="none"/><path d="M1402.19,519.36a2.275,2.275,0,1,1-2.27-2.42A2.349,2.349,0,0,1,1402.19,519.36Z" transform="translate(-1355.05 -500.6)" fill="#34b77e"/><path d="M1411.59,519.36a2.275,2.275,0,1,1-2.27-2.42A2.349,2.349,0,0,1,1411.59,519.36Z" transform="translate(-1355.05 -500.6)" fill="#34b77e"/><ellipse cx="2.27" cy="2.42" rx="2.27" ry="2.42" transform="translate(61.4 16.34)" fill="#34b77e"/><line x2="268.3" transform="translate(0 33.33)" stroke-width="0.761" stroke="#34b77e" stroke-linecap="round" stroke-linejoin="round" stroke-miterlimit="10" fill="none"/><line x2="161.19" transform="translate(0 43.97)" stroke-width="0.856" stroke="#2b3990" stroke-linecap="round" stroke-linejoin="round" stroke-miterlimit="10" fill="none"/><line x2="94.57" transform="translate(173.73 43.97)" stroke-width="0.844" stroke="#2b3990" stroke-linecap="round" stroke-linejoin="round" stroke-miterlimit="10" fill="none"/><line x1="132.67" transform="translate(135.63 55.63)" stroke-width="0.844" stroke="#2b3990" stroke-linecap="round" stroke-linejoin="round" stroke-miterlimit="10" fill="none"/><line x2="85.2" transform="translate(183.74)" stroke-width="0.761" stroke="#e1f0ff" stroke-linecap="round" stroke-linejoin="round" stroke-miterlimit="10" fill="none"/><line x2="94.57" transform="translate(174.37 10.64)" stroke-width="0.844" stroke="#e1f0ff" stroke-linecap="round" stroke-linejoin="round" stroke-miterlimit="10" fill="none"/><line x1="132.67" transform="translate(136.27 22.3)" stroke-width="0.844" stroke="#e1f0ff" stroke-linecap="round" stroke-linejoin="round" stroke-miterlimit="10" fill="none"/><line x1="15.8" transform="translate(109.05 55.63)" stroke-width="0.856" stroke="#2b3990" stroke-linecap="round" stroke-linejoin="round" stroke-miterlimit="10" fill="none"/><line x1="15.8" transform="translate(80.69 55.63)" stroke-width="0.856" stroke="#2b3990" stroke-linecap="round" stroke-linejoin="round" stroke-miterlimit="10" fill="none"/><line x1="15.81" transform="translate(52.32 55.63)" stroke-width="0.856" stroke="#2b3990" stroke-linecap="round" stroke-linejoin="round" stroke-miterlimit="10" fill="none"/><line x1="15.81" transform="translate(23.96 55.63)" stroke-width="0.856" stroke="#2b3990" stroke-linecap="round" stroke-linejoin="round" stroke-miterlimit="10" fill="none"/><line x1="249.39" transform="translate(18.91 69.8)" stroke-width="0.761" stroke="#ff4f92" stroke-linecap="round" stroke-linejoin="round" stroke-miterlimit="10" fill="none"/><line x1="5.71" transform="translate(0 55.63)" stroke-width="0.856" stroke="#2b3990" stroke-linecap="round" stroke-linejoin="round" stroke-miterlimit="10" fill="none"/><line x1="5.71" transform="translate(0 69.8)" stroke-width="0.856" stroke="#2b3990" stroke-linecap="round" stroke-linejoin="round" stroke-miterlimit="10" fill="none"/><line x1="5.71" transform="translate(0 83.98)" stroke-width="0.856" stroke="#2b3990" stroke-linecap="round" stroke-linejoin="round" stroke-miterlimit="10" fill="none"/><line x1="5.71" transform="translate(0 98.15)" stroke-width="0.856" stroke="#2b3990" stroke-linecap="round" stroke-linejoin="round" stroke-miterlimit="10" fill="none"/><line x2="68.58" transform="translate(23.38 83.98)" stroke-width="0.993" stroke="#ff4f92" stroke-linecap="round" stroke-linejoin="round" stroke-miterlimit="10" fill="none"/><line x2="90.97" transform="translate(23.38 98.5)" stroke-width="0.993" stroke="#ff4f92" stroke-linecap="round" stroke-linejoin="round" stroke-miterlimit="10" fill="none"/><line x2="123.36" transform="translate(23.38 113.02)" stroke-width="0.844" stroke="#e1f0ff" stroke-linecap="round" stroke-linejoin="round" stroke-miterlimit="10" fill="none"/><line x2="169.12" transform="translate(99.18 83.98)" stroke-width="0.856" stroke="#ff8b00" stroke-linecap="round" stroke-linejoin="round" stroke-miterlimit="10" fill="none"/><line x2="147.43" transform="translate(120.87 98.5)" stroke-width="0.856" stroke="#ff8b00" stroke-linecap="round" stroke-linejoin="round" stroke-miterlimit="10" fill="none"/><line x2="113.95" transform="translate(154.35 113.02)" stroke-width="0.844" stroke="#e1f0ff" stroke-linecap="round" stroke-linejoin="round" stroke-miterlimit="10" fill="none"/></g></g><path d="M1411.82,629.35s-6.88-8.79-11.43-10.21-9.43-1.49-10.58.81-2.58,12.62-1.56,14.31S1408.12,638.95,1411.82,629.35Z" transform="translate(-1231.25 -347.412)" fill="#ffe1bd"/><path d="M1582.9,483.54s7.28,10.29,12.33,12.14,10.55,2.2,11.98-.34,3.6-14.09,2.55-16.05S1587.6,472.92,1582.9,483.54Z" transform="translate(-1231.25 -347.412)" fill="#ffe1bd"/><path d="M1270.29,969.93a7.875,7.875,0,0,1,.55,2.35c-.05.48-.28.93-.31,1.42-.1,1.56,1.79,2.39,3.32,2.69a72.093,72.093,0,0,0,15.61.82c2.45-.07,5.01-.21,7.14-1.42a4.27,4.27,0,0,0,2-2.11,2.275,2.275,0,0,0-.73-2.65c.92-.33.88-1.8.12-2.42a4.108,4.108,0,0,0-2.81-.6c-4.68.19-9.33.88-14.01.98a37.036,37.036,0,0,1-6.9-.41C1272.88,968.36,1269.68,967.12,1270.29,969.93Z" transform="translate(-1231.25 -347.412)" fill="#1c4d66"/><path d="M1336.13,967.34a7.875,7.875,0,0,1,.55,2.35c-.05.48-.28.93-.31,1.42-.1,1.56,1.79,2.39,3.32,2.68a72.093,72.093,0,0,0,15.61.82c2.45-.07,5.01-.21,7.14-1.42a4.27,4.27,0,0,0,2-2.11,2.275,2.275,0,0,0-.73-2.65c.92-.33.88-1.79.12-2.42a4.043,4.043,0,0,0-2.81-.6c-4.68.19-9.33.88-14.01.98a37.036,37.036,0,0,1-6.9-.41C1338.72,965.76,1335.51,964.52,1336.13,967.34Z" transform="translate(-1231.25 -347.412)" fill="#1c4d66"/><path d="M1332.76,406.06s-12.36,26.67-24.1,31.59c0,0-3.51-4.92-6.67-2.11s1.36,12.99,4.54,14.04-6.49,13.69-11.84,14.4-26.06-25.28-21.85-45.65,14.69-22.82,14.69-22.82,14.99-16.15,44.89-2.79Z" transform="translate(-1231.25 -347.412)" fill="#153851"/></g><line x1="226.36" transform="translate(-253.5 826.57)" fill="none" stroke="#fff" stroke-miterlimit="10" stroke-width="2" opacity="0.5"/></g></svg>