<svg xmlns="http://www.w3.org/2000/svg" width="28.896" height="53.447" viewBox="0 0 28.896 53.447">
    <path
        d="M49.885.011,42.954,0C35.168,0,30.136,5.163,30.136,13.153v6.065H23.167a1.09,1.09,0,0,0-1.09,1.09V29.1a1.09,1.09,0,0,0,1.09,1.09h6.969V52.357a1.089,1.089,0,0,0,1.09,1.09h9.092a1.09,1.09,0,0,0,1.09-1.09V30.185h8.148a1.089,1.089,0,0,0,1.09-1.09l0-8.787a1.091,1.091,0,0,0-1.09-1.09H41.407V14.077c0-2.471.589-3.725,3.808-3.725l4.669,0a1.09,1.09,0,0,0,1.089-1.09V1.1A1.09,1.09,0,0,0,49.885.011Z"
        transform="translate(-22.077)"/>
</svg>
