<svg xmlns="http://www.w3.org/2000/svg" width="55.31" height="55.31" viewBox="0 0 55.31 55.31">
    <path
        d="M40.046,0H15.263A15.281,15.281,0,0,0,0,15.263V40.046A15.281,15.281,0,0,0,15.263,55.31H40.046A15.281,15.281,0,0,0,55.31,40.046V15.263A15.281,15.281,0,0,0,40.046,0ZM50.4,40.046A10.368,10.368,0,0,1,40.046,50.4H15.263A10.367,10.367,0,0,1,4.907,40.046V15.263A10.368,10.368,0,0,1,15.263,4.907H40.046A10.368,10.368,0,0,1,50.4,15.263V40.046Z"/>
    <path
        d="M55.22,40.97A14.252,14.252,0,1,0,69.472,55.222,14.268,14.268,0,0,0,55.22,40.97Zm0,23.6a9.344,9.344,0,1,1,9.345-9.344A9.355,9.355,0,0,1,55.22,64.565Z"
        transform="translate(-27.565 -27.566)"/>
    <path d="M122.52,28.251a3.6,3.6,0,1,0,2.545,1.053A3.613,3.613,0,0,0,122.52,28.251Z"
          transform="translate(-80.015 -19.009)"/>
</svg>
