<svg xmlns="http://www.w3.org/2000/svg" width="57.749" height="55.192" viewBox="0 0 57.749 55.192">
    <g transform="translate(-10 78)">
        <rect width="12.407" height="37.258" transform="translate(10.714 -60.066)"/>
        <path
            d="M185.473,143.6a13.353,13.353,0,0,0-10.339-4.268,14.9,14.9,0,0,0-4.305.583,9.769,9.769,0,0,0-3.271,1.635,14.007,14.007,0,0,0-3.59,3.944v-5.3H151.6l.038,1.8q.038,1.805.038,11.129t-.075,24.325h12.369V156.662a9.08,9.08,0,0,1,.413-3.046,7.986,7.986,0,0,1,2.388-3.214,6.087,6.087,0,0,1,3.967-1.3,5.349,5.349,0,0,1,4.756,2.237,10.878,10.878,0,0,1,1.522,6.185v19.926h12.369V156.1Q189.381,147.864,185.473,143.6Z"
            transform="translate(-121.634 -200.261)"/>
        <path
            d="M6.993,9.708a7.078,7.078,0,0,0-5.057,1.824A6.054,6.054,0,0,0,0,16.137a6.161,6.161,0,0,0,1.88,4.586,6.785,6.785,0,0,0,4.963,1.842h.075a7.084,7.084,0,0,0,5.095-1.842,5.952,5.952,0,0,0,1.9-4.586,6.271,6.271,0,0,0-1.917-4.605A6.875,6.875,0,0,0,6.993,9.708Z"
            transform="translate(10 -87.708)"/>
    </g>
</svg>
