<svg id="logo" xmlns="http://www.w3.org/2000/svg" width="359.74" height="159" viewBox="0 0 359.74 159">
    <path id="Tracé_189"
          d="M136.86,0H101.23L84.84,25.62,68.47,51.24,52.09,25.62,35.72,0H0V142.94l30.98-13.11V44.38l3.28,4.7L68.47,98.15l34.21-49.07,3.2-4.58V98.15l30.98-13.1V.06L136.9,0Z"
          fill="#fff"/>
    <path id="Tracé_190" d="M105.88,159h30.98V110.04l-30.98,13.11Z" fill="#fff"/>
    <path id="Tracé_191" d="M162.69,159h34.99V84.31L162.69,99.12Z" fill="#fff"/>
    <path id="Tracé_192" d="M162.69,74.12l34.99-14.8V0H162.69Z" fill="#fff"/>
    <path id="Tracé_193"
          d="M328.76,125.23l-3.28-3.58L291.27,84.31l-34.22,37.34-3.19,3.49V60.55L222.88,73.66v85.3l-.04.04h35.68l16.37-19.5,16.38-19.49,16.37,19.49L324.02,159h35.72V15.76L328.76,28.87Z"
          fill="#fff"/>
    <path id="Tracé_194" d="M253.86,0H222.88V48.66l30.98-13.11Z" fill="#fff"/>
</svg>
