<svg xmlns="http://www.w3.org/2000/svg" width="259.898" height="89.298" viewBox="0 0 259.898 89.298">
    <path
        d="M283.735,317.618h-3.786l-2.39-6.955H265.243l-2.347,6.955H259.11l9.79-28.968h5.045Zm-12.308-26.27L266.245,307.4H276.6Z"
        transform="translate(-231.151 -274.869)" fill="#fff"/>
    <path d="M293.34,287.63H297V292.9H293.34Zm0,8.659H297v21.19H293.34Z" transform="translate(-236.062 -274.722)"
          fill="#fff"/>
    <path
        d="M76.12,46.392l6.964-10.664L76.248,25.21h3.786L85.079,33l5.045-7.786H93.91L87.041,35.728l7,10.664h-3.82l-5.139-7.88-5.088,7.88Z"
        transform="translate(-10.919 -3.634)" fill="#fff"/>
    <path
        d="M130.951,21.592l-.565,23.495H126.78l.994-28.976h4.745l8.351,22.407,8.351-22.407h4.745l1,28.976h-3.615l-.565-23.495L143.4,41.343h-5.054Z"
        transform="translate(-18.188 -2.328)" fill="#fff"/>
    <g transform="translate(75.599 12.394)">
        <path
            d="M406.739,318.843h-3.092l-.214-1.567a12.042,12.042,0,0,1-6.852,2c-3.957,0-5.61-2.347-5.61-6.09,0-4.394,2.218-6,6.484-6h5.653v-3.306c0-2.655-1.173-3.563-4.608-3.563a28.637,28.637,0,0,0-5.679.548l-.394-2.912a24.408,24.408,0,0,1,6.287-.771c6.047,0,8.051,2.347,8.051,6.852Zm-3.657-8.565h-5.4c-2.261,0-3.083.694-3.083,2.827s.394,3.041,3,3.041a10.56,10.56,0,0,0,5.482-1.713Z"
            transform="translate(-325.668 -288.488)" fill="#fff"/>
        <path
            d="M425.722,300.573a46.662,46.662,0,0,0-6.047,3.657v14.621H416v-21.19h3.178l.214,2.955a27.234,27.234,0,0,1,5.833-3.426Z"
            transform="translate(-329.259 -288.488)" fill="#fff"/>
        <path
            d="M437.391,319.3a21.686,21.686,0,0,1-6.741-1.131l.48-2.869a24.084,24.084,0,0,0,6.047.857c3.349,0,3.914-.608,3.914-2.869s-.18-2.518-4.437-3.563c-5.268-1.31-5.747-2.4-5.747-6.784,0-3.923,1.713-5.7,7.306-5.7a23.81,23.81,0,0,1,6,.745l-.257,3a33.7,33.7,0,0,0-5.876-.608c-3.126,0-3.563.737-3.563,2.655,0,2.347.043,2.784,3.606,3.649,6.09,1.525,6.57,2.261,6.57,6.484s-1.259,6.133-7.306,6.133"
            transform="translate(-331.361 -288.495)" fill="#fff"/>
        <path
            d="M460.8,316.151a27.008,27.008,0,0,0,6.707-.994l.471,2.912a23.058,23.058,0,0,1-7.478,1.216c-6.261,0-8.394-3-8.394-7.786v-6.347c0-4.394,2-7.923,8.308-7.923s7.957,3.615,7.957,8.009v4.437H455.759v1.782c0,3.349.916,4.694,5.045,4.694m-5.045-9.525h9.1v-1.713c0-2.955-1-4.608-4.437-4.608s-4.659,1.653-4.659,4.608Z"
            transform="translate(-334.44 -288.493)" fill="#fff"/>
        <path d="M476.69,287.63h3.692V292.9h-3.657Zm0,8.659h3.692v21.19h-3.657Z"
              transform="translate(-337.967 -287.116)" fill="#fff"/>
        <path d="M262.62,44.854V15.012l3.649-.522V44.854Z" transform="translate(-113.276 -14.49)" fill="#fff"/>
        <path d="M275.01,44.854V15.012l3.657-.522V44.854Z" transform="translate(-115.053 -14.49)" fill="#fff"/>
        <path
            d="M519.6,316.154a26.889,26.889,0,0,0,6.7-.994l.48,2.912a23.126,23.126,0,0,1-7.486,1.233c-6.261,0-8.394-3-8.394-7.786v-6.347c0-4.394,2-7.923,8.308-7.923s7.966,3.615,7.966,8.009V309.7H514.557v1.782c0,3.349.908,4.694,5.045,4.694m-5.045-9.525h9.088v-1.713c0-2.955-1-4.608-4.437-4.608s-4.651,1.653-4.651,4.608Z"
            transform="translate(-342.875 -288.496)" fill="#fff"/>
        <path
            d="M317.223,332.09v16.951c0,1.55.857,2.116,2.287,2.116a22.055,22.055,0,0,0,8.043-2.415V332.09h2.5v20.959h-2.2l-.171-1.893a23.651,23.651,0,0,1-8.514,2.321c-3.272,0-4.437-1.85-4.437-4.737V332.09Z"
            transform="translate(-314.73 -293.495)" fill="#fff"/>
        <path
            d="M354.612,352.977V336.018c0-1.55-.814-2.107-2.278-2.107a22.055,22.055,0,0,0-8.043,2.415v16.651h-2.5V332.018h2.2l.163,1.893a23.694,23.694,0,0,1,8.522-2.321c3.272,0,4.437,1.85,4.437,4.737v16.651Z"
            transform="translate(-318.612 -293.423)" fill="#fff"/>
        <path d="M367.31,332h2.5v4.6h-2.5Zm0,7.075h2.5v13.979h-2.5Z" transform="translate(-322.274 -293.482)"
              fill="#fff"/>
        <path d="M160.559,80.509h-3.829l-7.1-20.959h2.535l6.458,19.195,6.5-19.195h2.535Z"
              transform="translate(-97.065 -20.955)" fill="#fff"/>
        <path
            d="M408.9,351.213a26.236,26.236,0,0,0,6.621-.994l.437,2.021a23.3,23.3,0,0,1-7.238,1.165c-5.893,0-7.786-3.058-7.786-7.615V339.2c0-4.283,1.936-7.615,7.829-7.615s7.623,3.315,7.623,7.615v4.043H403.431v2.63c0,3.743,1.285,5.336,5.465,5.336m-5.465-10.2h10.492v-1.893c0-3.529-1.242-5.379-5.139-5.379s-5.328,1.85-5.328,5.379Z"
            transform="translate(-327.097 -293.423)" fill="#fff"/>
        <path
            d="M435.332,334.04a47.3,47.3,0,0,0-6.629,3.871v15.066H426.21V332.018h2.235l.128,3.186a35.222,35.222,0,0,1,6.45-3.615Z"
            transform="translate(-330.724 -293.423)" fill="#fff"/>
        <path
            d="M447.968,353.4a17.729,17.729,0,0,1-6.159-1.079l.428-2.021a20.657,20.657,0,0,0,5.55.857c3.872,0,4.651-.737,4.651-3.426,0-3.015-.086-3.315-4.865-4.437-5.251-1.242-5.679-2.57-5.679-6.364,0-3.486,1.713-5.379,6.852-5.379a23.722,23.722,0,0,1,5.936.728l-.257,2.107a33.46,33.46,0,0,0-5.85-.6c-3.657,0-4.171.951-4.171,3.229,0,2.878.171,3.178,4.034,4.171,6.158,1.55,6.5,2.57,6.5,6.458,0,3.786-1.37,5.722-6.964,5.722"
            transform="translate(-332.962 -293.417)" fill="#fff"/>
        <path d="M464.18,332h2.5v4.6h-2.5Zm0,7.075h2.5v13.979h-2.5Z" transform="translate(-336.172 -293.482)"
              fill="#fff"/>
        <path
            d="M486.028,352.052a10.013,10.013,0,0,1-3.9.659c-3.306,0-4.728-1.208-4.728-4.522V333.474H473.36v-2.15H477.4v-4.231l2.492-.343v4.574h5.713l-.257,2.15H479.9v14.458c0,1.85.257,2.63,2.415,2.63a9.74,9.74,0,0,0,3.246-.437Z"
            transform="translate(-337.489 -292.729)" fill="#fff"/>
        <path
            d="M500.236,351.213a26.234,26.234,0,0,0,6.621-.994l.437,2.021a23.246,23.246,0,0,1-7.229,1.165c-5.9,0-7.794-3.058-7.794-7.615V339.2c0-4.283,1.944-7.615,7.837-7.615s7.615,3.315,7.615,7.615v4.043H494.771v2.63c0,3.743,1.293,5.336,5.465,5.336m-5.465-10.2h10.5v-1.893c0-3.529-1.25-5.379-5.139-5.379s-5.336,1.85-5.336,5.379Z"
            transform="translate(-340.202 -293.423)" fill="#fff"/>
        <path d="M498.24,327.22c1.936-.625,4.206-1.379,6.373-2.21l.745,2.141a62.247,62.247,0,0,1-6.424,2.064Z"
              transform="translate(-341.059 -292.479)" fill="#fff"/>
    </g>
    <g transform="translate(0 0)">
        <path
            d="M344.324,311.4l-5.73-3.315-.266-.154.266-.154,5.73-3.306a.857.857,0,0,0,.385-.574,2.917,2.917,0,0,0,.06-.582,3.921,3.921,0,0,0,0-.437v-.137l-.12-.086a2.483,2.483,0,0,0-1.225-.54.727.727,0,0,0-.36.094l-5.739,3.306-.266.154V293.339a1.156,1.156,0,0,0-.642-.857,4.294,4.294,0,0,0-.54-.283l-.129-.06-.137.06a5.433,5.433,0,0,0-.531.283,1.191,1.191,0,0,0-.634.857v12.334l-.266-.154-5.73-3.306a.729.729,0,0,0-.36-.094,2.569,2.569,0,0,0-1.233.531l-.111.094v.137a2.383,2.383,0,0,0,0,.428,2.426,2.426,0,0,0,.06.591.856.856,0,0,0,.377.574l5.739,3.306.266.154-.266.154-5.739,3.315a.857.857,0,0,0-.377.574,2.406,2.406,0,0,0-.06.582,2.31,2.31,0,0,0,0,.428v.146l.111.086a2.5,2.5,0,0,0,1.233.531h0a.72.72,0,0,0,.36-.086l5.73-3.315h0l.266-.146v6.929c0,.48.385.677.642.857a3.7,3.7,0,0,0,.54.283l.129.06.137-.06a3.418,3.418,0,0,0,.531-.283,1.148,1.148,0,0,0,.634-.857V310.5h0V310.2l.266.154,5.739,3.315a.728.728,0,0,0,.36.094,2.569,2.569,0,0,0,1.225-.54l.12-.086v-.146a3.686,3.686,0,0,0,0-.428,2.917,2.917,0,0,0-.06-.582.857.857,0,0,0-.385-.574"
            transform="translate(-240.854 -275.369)" fill="#fff"/>
        <path
            d="M226.47,317.1a66.809,66.809,0,0,1,1.208-13.1A62.84,62.84,0,0,1,231.335,292a87.185,87.185,0,0,1,6.073-11.846,44.175,44.175,0,0,1,3.666-5.216c.951-1.156,1.961-2.381,3.349-2.381,1.525,0,2.278.411,2.278,1.251a37.691,37.691,0,0,1-2.133,5.028q-2.133,4.608-4.009,9.67a89.339,89.339,0,0,0-3.478,12.608,80.411,80.411,0,0,0,0,31.811,91.751,91.751,0,0,0,3.88,12.934c1.345,3.649,2.4,6.912,3.743,9.807a36.711,36.711,0,0,1,2.021,4.7c0,.857-.754,1.25-2.278,1.25s-2.39-1.422-3.349-2.5a41.387,41.387,0,0,1-3.666-5.19,94.266,94.266,0,0,1-6.047-11.8,62.415,62.415,0,0,1-3.666-11.8,65.507,65.507,0,0,1-1.251-13.208"
            transform="translate(-226.468 -272.56)" fill="#fff"/>
    </g>
    <g transform="translate(75.342 80.676)">
        <path d="M89.373,94.66H90.4l-1.422,8.086H87.96Z" transform="translate(-87.96 -94.275)" fill="#fff"/>
        <path
            d="M326.772,370.645a3.14,3.14,0,0,1-.051.505l-.788,4.48h-.994l.8-4.557v-.206c0-.24-.12-.325-.411-.325a5.191,5.191,0,0,0-2.236.857l-.745,4.2h-.994l1.036-5.842.857-.146-.077.857a5.558,5.558,0,0,1,2.5-.857.934.934,0,0,1,1.062,1.045"
            transform="translate(-315.423 -367.159)" fill="#fff"/>
        <path d="M333.286,369.38l1.019-.146-1.053,6h-1Zm.437-2.484,1.019-.146-.265,1.516-1.019.137Z"
              transform="translate(-316.987 -366.75)" fill="#fff"/>
        <path
            d="M339.583,374.547a1.34,1.34,0,0,1,0-.266l.7-3.991H339.24l.146-.857h1.045l.317-1.456,1.028-.137-.283,1.593h1.627l-.171.857h-1.6l-.7,3.983a.427.427,0,0,0,0,.128c0,.171.094.257.343.257a2.622,2.622,0,0,0,1.1-.257l.231.694a3.5,3.5,0,0,1-1.61.4c-.728,0-1.062-.411-1.062-.951"
            transform="translate(-317.99 -366.906)" fill="#fff"/>
        <path d="M348.578,369.38l1.019-.146-1.054,6h-.994Zm.437-2.484,1.019-.146-.266,1.516-1.019.137Z"
              transform="translate(-319.182 -366.75)" fill="#fff"/>
        <path
            d="M358.618,375.633h-.857v-.72a3.289,3.289,0,0,1-2.2.857c-.917,0-1.251-.5-1.251-1.173a4.209,4.209,0,0,1,.043-.462l.42-2.347c.248-1.43.788-2.167,2.655-2.167a6.594,6.594,0,0,1,2.124.394Zm-.111-5.028a4.539,4.539,0,0,0-1.139-.146c-.917,0-1.362.283-1.567,1.448l-.377,2.133a2.841,2.841,0,0,0-.051.411c0,.283.128.437.488.437a3.178,3.178,0,0,0,2.073-1.028Z"
            transform="translate(-320.152 -367.162)" fill="#fff"/>
        <path
            d="M365.5,374.547a1.34,1.34,0,0,1,0-.266l.7-3.991H365.16l.146-.857h1.045l.257-1.456,1.019-.137-.283,1.593h1.627l-.171.857h-1.6l-.7,3.983a.851.851,0,0,0,0,.128c0,.171.094.257.334.257a2.571,2.571,0,0,0,1.1-.257l.231.694a3.477,3.477,0,0,1-1.61.4.925.925,0,0,1-1.062-.951"
            transform="translate(-321.708 -366.906)" fill="#fff"/>
        <path d="M374.5,369.38l1.019-.146-1.054,6h-.994Zm.437-2.484,1.019-.146-.266,1.516-1.019.137Z"
              transform="translate(-322.901 -366.75)" fill="#fff"/>
        <path
            d="M381.445,375.631l-.925-5.824.959-.137.754,5.139,1.713-3.495a1.791,1.791,0,0,0,.214-.9,2.717,2.717,0,0,0-.094-.66l.959-.146a3.342,3.342,0,0,1,.094.779,2.065,2.065,0,0,1-.206,1.028l-2.047,4.18Z"
            transform="translate(-323.912 -367.16)" fill="#fff"/>
        <path
            d="M390.836,374.054a1.237,1.237,0,0,0,0,.266c0,.377.18.591.814.591a5.243,5.243,0,0,0,2.158-.617l.223.745a5.053,5.053,0,0,1-2.51.711c-1.191,0-1.662-.557-1.662-1.37a3.436,3.436,0,0,1,.043-.548l.351-1.987a2.306,2.306,0,0,1,2.612-2.244c.985,0,1.713.463,1.713,1.328,0,1-.463,1.5-2.124,2.056-.719.24-.951.3-1.456.463Zm2.758-3.015c0-.385-.291-.625-.857-.625a1.319,1.319,0,0,0-1.516,1.293l-.146.814,1.1-.326c.985-.291,1.4-.668,1.4-1.156"
            transform="translate(-325.252 -367.159)" fill="#fff"/>
        <path
            d="M410.284,375.224h-.857l.06-.72a3.426,3.426,0,0,1-2.236.857,1.071,1.071,0,0,1-1.233-1.173,3.1,3.1,0,0,1,0-.463l.411-2.33c.257-1.456.779-2.184,2.647-2.184a5.448,5.448,0,0,1,1.225.154l.437-2.45,1.019-.146Zm-.111-5.028a5.585,5.585,0,0,0-1.191-.146c-1.054,0-1.353.291-1.567,1.456l-.368,2.15a2.212,2.212,0,0,0-.043.377c0,.291.111.445.471.445a3.648,3.648,0,0,0,2.116-.976Z"
            transform="translate(-327.569 -366.753)" fill="#fff"/>
        <path d="M191.542,94.38h.762l-.522,2.972h-.762Z" transform="translate(-102.746 -94.234)" fill="#fff"/>
        <path
            d="M423.962,374.054a1.245,1.245,0,0,0,0,.266c0,.377.18.591.857.591a5.242,5.242,0,0,0,2.158-.617l.223.745a5.063,5.063,0,0,1-2.518.711c-1.191,0-1.662-.557-1.662-1.37a3.525,3.525,0,0,1,.051-.548l.351-1.987a2.291,2.291,0,0,1,2.57-2.244c.976,0,1.713.463,1.713,1.328,0,1-.463,1.5-2.124,2.056-.719.24-.951.3-1.456.463Zm2.758-3.015c0-.385-.3-.625-.857-.625a1.319,1.319,0,0,0-1.516,1.293l-.146.814,1.088-.326c.985-.291,1.4-.668,1.4-1.156"
            transform="translate(-330.01 -367.159)" fill="#fff"/>
        <path
            d="M207.87,100.126l-1.345-2.861.934-.146,1.079,2.338,1.747-2.27h1.156l-2.475,3.049,1.379,2.861h-1.028L208.3,101l-1.764,2.1H205.42Z"
            transform="translate(-104.812 -94.627)" fill="#fff"/>
        <path
            d="M446.7,370.662a4.445,4.445,0,0,0-1.259-.206c-.959,0-1.328.326-1.533,1.448l-.385,2.21v.257c0,.368.2.522.7.522a5.5,5.5,0,0,0,1.833-.4l.137.814a5.139,5.139,0,0,1-2.073.445c-1.122,0-1.593-.523-1.593-1.328a2.358,2.358,0,0,1,.051-.454l.385-2.2c.291-1.636.985-2.167,2.57-2.167a4.179,4.179,0,0,1,1.43.266Z"
            transform="translate(-332.809 -367.159)" fill="#fff"/>
        <path
            d="M452.7,374.054a1.237,1.237,0,0,0,0,.266c0,.377.18.591.814.591a5.242,5.242,0,0,0,2.158-.617l.223.745a5.053,5.053,0,0,1-2.51.711c-1.191,0-1.67-.557-1.67-1.37a3.514,3.514,0,0,1,.051-.548l.351-1.987a2.306,2.306,0,0,1,2.612-2.244c.985,0,1.713.463,1.713,1.328,0,1-.463,1.5-2.124,2.056-.72.24-.951.3-1.456.463Zm2.758-3.015c0-.385-.291-.625-.857-.625a1.319,1.319,0,0,0-1.516,1.293l-.146.814,1.1-.326c.985-.291,1.4-.668,1.4-1.156"
            transform="translate(-334.126 -367.159)" fill="#fff"/>
        <path d="M236.365,94.356l1.028-.146-1.5,8.471H234.9Z" transform="translate(-109.042 -94.21)" fill="#fff"/>
        <path d="M243.155,94.356l1.019-.146-1.49,8.471h-.994Z" transform="translate(-110.016 -94.21)" fill="#fff"/>
        <path
            d="M476.055,374.054a1.241,1.241,0,0,0,0,.266c0,.377.18.591.814.591a5.284,5.284,0,0,0,2.158-.617l.214.745a5,5,0,0,1-2.51.711c-1.191,0-1.662-.557-1.662-1.37a3.514,3.514,0,0,1,.051-.548l.351-1.987a2.291,2.291,0,0,1,2.57-2.244c.985,0,1.713.463,1.713,1.328,0,1-.454,1.5-2.116,2.056-.719.24-.951.3-1.465.463Zm2.749-3.015c0-.385-.291-.625-.857-.625a1.31,1.31,0,0,0-1.516,1.293l-.146.814,1.088-.326c.985-.291,1.4-.668,1.4-1.156"
            transform="translate(-337.477 -367.159)" fill="#fff"/>
        <path
            d="M490.093,370.645a2.393,2.393,0,0,1-.051.505l-.788,4.48h-.994l.805-4.557v-.206c0-.24-.128-.325-.411-.325a5.19,5.19,0,0,0-2.236.857l-.745,4.2h-.994l1.036-5.842.857-.146-.077.857a5.558,5.558,0,0,1,2.5-.857.934.934,0,0,1,1.053,1.045"
            transform="translate(-338.856 -367.159)" fill="#fff"/>
        <path
            d="M499.791,370.662a4.444,4.444,0,0,0-1.259-.206c-.959,0-1.328.326-1.533,1.448l-.385,2.21v.257c0,.368.2.522.7.522a5.585,5.585,0,0,0,1.842-.4l.128.814a5.139,5.139,0,0,1-2.073.445c-1.122,0-1.593-.523-1.593-1.328a2.363,2.363,0,0,1,.051-.454l.385-2.2c.291-1.636.985-2.167,2.57-2.167a4.18,4.18,0,0,1,1.43.266Z"
            transform="translate(-340.426 -367.159)" fill="#fff"/>
        <path
            d="M505.836,374.054a1.237,1.237,0,0,0,0,.266c0,.377.18.591.814.591a5.206,5.206,0,0,0,2.158-.617l.223.745a5.053,5.053,0,0,1-2.51.711c-1.191,0-1.662-.557-1.662-1.37a3.432,3.432,0,0,1,.043-.548l.351-1.987a2.311,2.311,0,0,1,2.612-2.244c.985,0,1.713.463,1.713,1.328,0,1-.463,1.5-2.124,2.056-.719.24-.951.3-1.456.463Zm2.758-3.015c0-.385-.291-.625-.857-.625a1.319,1.319,0,0,0-1.525,1.293l-.146.814,1.1-.326c.985-.291,1.4-.668,1.4-1.156"
            transform="translate(-341.751 -367.159)" fill="#fff"/>
    </g>
</svg>
