<svg xmlns="http://www.w3.org/2000/svg" width="67.903" height="55.171" viewBox="0 0 67.903 55.171">
    <g transform="translate(0 0)">
        <path
            d="M67.9,54.531a29.023,29.023,0,0,1-8.021,2.2,13.842,13.842,0,0,0,6.124-7.694,27.82,27.82,0,0,1-8.827,3.37A13.92,13.92,0,0,0,33.1,61.924a14.334,14.334,0,0,0,.323,3.174A39.4,39.4,0,0,1,4.728,50.538,13.924,13.924,0,0,0,9.006,69.143a13.748,13.748,0,0,1-6.29-1.715v.153A13.985,13.985,0,0,0,13.869,81.26a13.894,13.894,0,0,1-3.65.458,12.309,12.309,0,0,1-2.635-.238,14.053,14.053,0,0,0,13.008,9.7,27.971,27.971,0,0,1-17.26,5.937A26.072,26.072,0,0,1,0,96.924a39.19,39.19,0,0,0,21.355,6.247c25.616,0,39.621-21.22,39.621-39.613,0-.615-.021-1.21-.051-1.8A27.771,27.771,0,0,0,67.9,54.531Z"
            transform="translate(0 -48)"/>
    </g>
</svg>
