<?xml version="1.0" encoding="UTF-8" standalone="no"?>
<!-- Created with Inkscape (http://www.inkscape.org/) -->

<svg
   xmlns:dc="http://purl.org/dc/elements/1.1/"
   xmlns:cc="http://creativecommons.org/ns#"
   xmlns:rdf="http://www.w3.org/1999/02/22-rdf-syntax-ns#"
   xmlns:svg="http://www.w3.org/2000/svg"
   xmlns="http://www.w3.org/2000/svg"
   xmlns:sodipodi="http://sodipodi.sourceforge.net/DTD/sodipodi-0.dtd"
   xmlns:inkscape="http://www.inkscape.org/namespaces/inkscape"
   version="1.1"
   id="svg2"
   xml:space="preserve"
   width="666.66669"
   height="666.66669"
   viewBox="0 0 666.66669 666.66669"
   sodipodi:docname="world.svg"
   inkscape:version="0.92.5 (2060ec1f9f, 2020-04-08)"><metadata
     id="metadata8"><rdf:RDF><cc:Work
         rdf:about=""><dc:format>image/svg+xml</dc:format><dc:type
           rdf:resource="http://purl.org/dc/dcmitype/StillImage" /></cc:Work></rdf:RDF></metadata><defs
     id="defs6"><clipPath
       clipPathUnits="userSpaceOnUse"
       id="clipPath20"><path
         d="M 0,0 H 500 V 500 H 0 Z"
         id="path18"
         inkscape:connector-curvature="0" /></clipPath><clipPath
       clipPathUnits="userSpaceOnUse"
       id="clipPath120"><path
         d="m 210.331,177.828 h 84.38 v -62.694 h -84.38 z"
         id="path118"
         inkscape:connector-curvature="0" /></clipPath><clipPath
       clipPathUnits="userSpaceOnUse"
       id="clipPath124"><path
         d="m 294.711,146.48 c 0,-17.312 -18.89,-31.346 -42.19,-31.346 -23.3,0 -42.19,14.034 -42.19,31.346 0,17.313 18.89,31.348 42.19,31.348 23.3,0 42.19,-14.035 42.19,-31.348"
         id="path122"
         inkscape:connector-curvature="0" /></clipPath><radialGradient
       fx="0"
       fy="0"
       cx="0"
       cy="0"
       r="1"
       gradientUnits="userSpaceOnUse"
       gradientTransform="matrix(42.189926,0,0,-31.347191,252.52051,146.48145)"
       spreadMethod="pad"
       id="radialGradient136"><stop
         style="stop-opacity:1;stop-color:#ffffff"
         offset="0"
         id="stop130" /><stop
         style="stop-opacity:1;stop-color:#ffffff"
         offset="0.42662523"
         id="stop132" /><stop
         style="stop-opacity:0;stop-color:#ffffff"
         offset="1"
         id="stop134" /></radialGradient><mask
       maskUnits="userSpaceOnUse"
       x="0"
       y="0"
       width="1"
       height="1"
       id="mask138"><g
         id="g148"><g
           id="g146"><g
             id="g144"><g
               id="g142"><path
                 d="M -32768,32767 H 32767 V -32768 H -32768 Z"
                 style="fill:url(#radialGradient136);stroke:none"
                 id="path140"
                 inkscape:connector-curvature="0" /></g></g></g></g></mask><radialGradient
       fx="0"
       fy="0"
       cx="0"
       cy="0"
       r="1"
       gradientUnits="userSpaceOnUse"
       gradientTransform="matrix(42.189926,0,0,-31.347191,252.52051,146.48145)"
       spreadMethod="pad"
       id="radialGradient156"><stop
         style="stop-opacity:1;stop-color:#7c97b5"
         offset="0"
         id="stop150" /><stop
         style="stop-opacity:1;stop-color:#7c97b5"
         offset="0.42662523"
         id="stop152" /><stop
         style="stop-opacity:1;stop-color:#ffffff"
         offset="1"
         id="stop154" /></radialGradient><clipPath
       clipPathUnits="userSpaceOnUse"
       id="clipPath226"><path
         d="m 184.208,401.965 h 79.171 v -79.172 h -79.171 z"
         id="path224"
         inkscape:connector-curvature="0" /></clipPath><clipPath
       clipPathUnits="userSpaceOnUse"
       id="clipPath230"><path
         d="m 263.379,362.379 c 0,-21.862 -17.723,-39.586 -39.586,-39.586 -21.862,0 -39.585,17.724 -39.585,39.586 0,21.864 17.723,39.586 39.585,39.586 21.863,0 39.586,-17.722 39.586,-39.586"
         id="path228"
         inkscape:connector-curvature="0" /></clipPath><radialGradient
       fx="0"
       fy="0"
       cx="0"
       cy="0"
       r="1"
       gradientUnits="userSpaceOnUse"
       gradientTransform="matrix(39.585934,0,0,-39.585934,223.79297,362.37939)"
       spreadMethod="pad"
       id="radialGradient242"><stop
         style="stop-opacity:1;stop-color:#ffffff"
         offset="0"
         id="stop236" /><stop
         style="stop-opacity:1;stop-color:#ffffff"
         offset="0.42662523"
         id="stop238" /><stop
         style="stop-opacity:0;stop-color:#ffffff"
         offset="1"
         id="stop240" /></radialGradient><mask
       maskUnits="userSpaceOnUse"
       x="0"
       y="0"
       width="1"
       height="1"
       id="mask244"><g
         id="g254"><g
           id="g252"><g
             id="g250"><g
               id="g248"><path
                 d="M -32768,32767 H 32767 V -32768 H -32768 Z"
                 style="fill:url(#radialGradient242);stroke:none"
                 id="path246"
                 inkscape:connector-curvature="0" /></g></g></g></g></mask><radialGradient
       fx="0"
       fy="0"
       cx="0"
       cy="0"
       r="1"
       gradientUnits="userSpaceOnUse"
       gradientTransform="matrix(39.585934,0,0,-39.585934,223.79297,362.37939)"
       spreadMethod="pad"
       id="radialGradient262"><stop
         style="stop-opacity:1;stop-color:#7c97b5"
         offset="0"
         id="stop256" /><stop
         style="stop-opacity:1;stop-color:#7c97b5"
         offset="0.42662523"
         id="stop258" /><stop
         style="stop-opacity:1;stop-color:#ffffff"
         offset="1"
         id="stop260" /></radialGradient><clipPath
       clipPathUnits="userSpaceOnUse"
       id="clipPath288"><path
         d="m 192.528,339.66 h 79.173 v -79.172 h -79.173 z"
         id="path286"
         inkscape:connector-curvature="0" /></clipPath><clipPath
       clipPathUnits="userSpaceOnUse"
       id="clipPath292"><path
         d="m 271.701,300.074 c 0,-21.864 -17.723,-39.586 -39.586,-39.586 -21.864,0 -39.587,17.722 -39.587,39.586 0,21.863 17.723,39.586 39.587,39.586 21.863,0 39.586,-17.723 39.586,-39.586"
         id="path290"
         inkscape:connector-curvature="0" /></clipPath><radialGradient
       fx="0"
       fy="0"
       cx="0"
       cy="0"
       r="1"
       gradientUnits="userSpaceOnUse"
       gradientTransform="matrix(39.586182,0,0,-39.586182,232.11475,300.07422)"
       spreadMethod="pad"
       id="radialGradient304"><stop
         style="stop-opacity:1;stop-color:#ffffff"
         offset="0"
         id="stop298" /><stop
         style="stop-opacity:1;stop-color:#ffffff"
         offset="0.42662523"
         id="stop300" /><stop
         style="stop-opacity:0;stop-color:#ffffff"
         offset="1"
         id="stop302" /></radialGradient><mask
       maskUnits="userSpaceOnUse"
       x="0"
       y="0"
       width="1"
       height="1"
       id="mask306"><g
         id="g316"><g
           id="g314"><g
             id="g312"><g
               id="g310"><path
                 d="M -32768,32767 H 32767 V -32768 H -32768 Z"
                 style="fill:url(#radialGradient304);stroke:none"
                 id="path308"
                 inkscape:connector-curvature="0" /></g></g></g></g></mask><radialGradient
       fx="0"
       fy="0"
       cx="0"
       cy="0"
       r="1"
       gradientUnits="userSpaceOnUse"
       gradientTransform="matrix(39.586182,0,0,-39.586182,232.11475,300.07422)"
       spreadMethod="pad"
       id="radialGradient324"><stop
         style="stop-opacity:1;stop-color:#7c97b5"
         offset="0"
         id="stop318" /><stop
         style="stop-opacity:1;stop-color:#7c97b5"
         offset="0.42662523"
         id="stop320" /><stop
         style="stop-opacity:1;stop-color:#ffffff"
         offset="1"
         id="stop322" /></radialGradient><clipPath
       clipPathUnits="userSpaceOnUse"
       id="clipPath368"><path
         d="m 267.166,330.393 h 70.885 v -79.172 h -70.885 z"
         id="path366"
         inkscape:connector-curvature="0" /></clipPath><clipPath
       clipPathUnits="userSpaceOnUse"
       id="clipPath372"><path
         d="m 338.051,290.807 c 0,-21.863 -15.867,-39.586 -35.443,-39.586 -19.573,0 -35.442,17.723 -35.442,39.586 0,21.862 15.869,39.586 35.442,39.586 19.576,0 35.443,-17.724 35.443,-39.586"
         id="path370"
         inkscape:connector-curvature="0" /></clipPath><radialGradient
       fx="0"
       fy="0"
       cx="0"
       cy="0"
       r="1"
       gradientUnits="userSpaceOnUse"
       gradientTransform="matrix(35.442123,0,0,-39.585934,302.60937,290.80664)"
       spreadMethod="pad"
       id="radialGradient384"><stop
         style="stop-opacity:1;stop-color:#ffffff"
         offset="0"
         id="stop378" /><stop
         style="stop-opacity:1;stop-color:#ffffff"
         offset="0.42662523"
         id="stop380" /><stop
         style="stop-opacity:0;stop-color:#ffffff"
         offset="1"
         id="stop382" /></radialGradient><mask
       maskUnits="userSpaceOnUse"
       x="0"
       y="0"
       width="1"
       height="1"
       id="mask386"><g
         id="g396"><g
           id="g394"><g
             id="g392"><g
               id="g390"><path
                 d="M -32768,32767 H 32767 V -32768 H -32768 Z"
                 style="fill:url(#radialGradient384);stroke:none"
                 id="path388"
                 inkscape:connector-curvature="0" /></g></g></g></g></mask><radialGradient
       fx="0"
       fy="0"
       cx="0"
       cy="0"
       r="1"
       gradientUnits="userSpaceOnUse"
       gradientTransform="matrix(35.442123,0,0,-39.585934,302.60937,290.80664)"
       spreadMethod="pad"
       id="radialGradient404"><stop
         style="stop-opacity:1;stop-color:#7c97b5"
         offset="0"
         id="stop398" /><stop
         style="stop-opacity:1;stop-color:#7c97b5"
         offset="0.42662523"
         id="stop400" /><stop
         style="stop-opacity:1;stop-color:#ffffff"
         offset="1"
         id="stop402" /></radialGradient><clipPath
       clipPathUnits="userSpaceOnUse"
       id="clipPath430"><path
         d="m 260.632,241.082 h 79.173 V 161.91 h -79.173 z"
         id="path428"
         inkscape:connector-curvature="0" /></clipPath><clipPath
       clipPathUnits="userSpaceOnUse"
       id="clipPath434"><path
         d="m 339.805,201.496 c 0,-21.864 -17.724,-39.586 -39.587,-39.586 -21.862,0 -39.586,17.722 -39.586,39.586 0,21.863 17.724,39.586 39.586,39.586 21.863,0 39.587,-17.723 39.587,-39.586"
         id="path432"
         inkscape:connector-curvature="0" /></clipPath><radialGradient
       fx="0"
       fy="0"
       cx="0"
       cy="0"
       r="1"
       gradientUnits="userSpaceOnUse"
       gradientTransform="matrix(39.585934,0,0,-39.585934,300.21875,201.49609)"
       spreadMethod="pad"
       id="radialGradient446"><stop
         style="stop-opacity:1;stop-color:#ffffff"
         offset="0"
         id="stop440" /><stop
         style="stop-opacity:1;stop-color:#ffffff"
         offset="0.42662523"
         id="stop442" /><stop
         style="stop-opacity:0;stop-color:#ffffff"
         offset="1"
         id="stop444" /></radialGradient><mask
       maskUnits="userSpaceOnUse"
       x="0"
       y="0"
       width="1"
       height="1"
       id="mask448"><g
         id="g458"><g
           id="g456"><g
             id="g454"><g
               id="g452"><path
                 d="M -32768,32767 H 32767 V -32768 H -32768 Z"
                 style="fill:url(#radialGradient446);stroke:none"
                 id="path450"
                 inkscape:connector-curvature="0" /></g></g></g></g></mask><radialGradient
       fx="0"
       fy="0"
       cx="0"
       cy="0"
       r="1"
       gradientUnits="userSpaceOnUse"
       gradientTransform="matrix(39.585934,0,0,-39.585934,300.21875,201.49609)"
       spreadMethod="pad"
       id="radialGradient466"><stop
         style="stop-opacity:1;stop-color:#7c97b5"
         offset="0"
         id="stop460" /><stop
         style="stop-opacity:1;stop-color:#7c97b5"
         offset="0.42662523"
         id="stop462" /><stop
         style="stop-opacity:1;stop-color:#ffffff"
         offset="1"
         id="stop464" /></radialGradient><clipPath
       clipPathUnits="userSpaceOnUse"
       id="clipPath492"><path
         d="M 168.626,249.915 H 274.574 V 171.538 H 168.626 Z"
         id="path490"
         inkscape:connector-curvature="0" /></clipPath><clipPath
       clipPathUnits="userSpaceOnUse"
       id="clipPath496"><path
         d="m 274.574,210.727 c 0,-21.644 -23.717,-39.189 -52.973,-39.189 -29.256,0 -52.975,17.545 -52.975,39.189 0,21.643 23.719,39.188 52.975,39.188 29.256,0 52.973,-17.545 52.973,-39.188"
         id="path494"
         inkscape:connector-curvature="0" /></clipPath><radialGradient
       fx="0"
       fy="0"
       cx="0"
       cy="0"
       r="1"
       gradientUnits="userSpaceOnUse"
       gradientTransform="matrix(52.974644,0,0,-39.188072,221.59961,210.72656)"
       spreadMethod="pad"
       id="radialGradient508"><stop
         style="stop-opacity:1;stop-color:#ffffff"
         offset="0"
         id="stop502" /><stop
         style="stop-opacity:1;stop-color:#ffffff"
         offset="0.42662523"
         id="stop504" /><stop
         style="stop-opacity:0;stop-color:#ffffff"
         offset="1"
         id="stop506" /></radialGradient><mask
       maskUnits="userSpaceOnUse"
       x="0"
       y="0"
       width="1"
       height="1"
       id="mask510"><g
         id="g520"><g
           id="g518"><g
             id="g516"><g
               id="g514"><path
                 d="M -32768,32767 H 32767 V -32768 H -32768 Z"
                 style="fill:url(#radialGradient508);stroke:none"
                 id="path512"
                 inkscape:connector-curvature="0" /></g></g></g></g></mask><radialGradient
       fx="0"
       fy="0"
       cx="0"
       cy="0"
       r="1"
       gradientUnits="userSpaceOnUse"
       gradientTransform="matrix(52.974644,0,0,-39.188072,221.59961,210.72656)"
       spreadMethod="pad"
       id="radialGradient528"><stop
         style="stop-opacity:1;stop-color:#7c97b5"
         offset="0"
         id="stop522" /><stop
         style="stop-opacity:1;stop-color:#7c97b5"
         offset="0.42662523"
         id="stop524" /><stop
         style="stop-opacity:1;stop-color:#ffffff"
         offset="1"
         id="stop526" /></radialGradient><clipPath
       clipPathUnits="userSpaceOnUse"
       id="clipPath562"><path
         d="m 255.644,390.963 h 79.171 v -79.171 h -79.171 z"
         id="path560"
         inkscape:connector-curvature="0" /></clipPath><clipPath
       clipPathUnits="userSpaceOnUse"
       id="clipPath566"><path
         d="m 334.815,351.377 c 0,-21.863 -17.723,-39.585 -39.586,-39.585 -21.862,0 -39.585,17.722 -39.585,39.585 0,21.863 17.723,39.586 39.585,39.586 21.863,0 39.586,-17.723 39.586,-39.586"
         id="path564"
         inkscape:connector-curvature="0" /></clipPath><radialGradient
       fx="0"
       fy="0"
       cx="0"
       cy="0"
       r="1"
       gradientUnits="userSpaceOnUse"
       gradientTransform="matrix(39.585934,0,0,-39.585934,295.22949,351.37744)"
       spreadMethod="pad"
       id="radialGradient578"><stop
         style="stop-opacity:1;stop-color:#ffffff"
         offset="0"
         id="stop572" /><stop
         style="stop-opacity:1;stop-color:#ffffff"
         offset="0.42662523"
         id="stop574" /><stop
         style="stop-opacity:0;stop-color:#ffffff"
         offset="1"
         id="stop576" /></radialGradient><mask
       maskUnits="userSpaceOnUse"
       x="0"
       y="0"
       width="1"
       height="1"
       id="mask580"><g
         id="g590"><g
           id="g588"><g
             id="g586"><g
               id="g584"><path
                 d="M -32768,32767 H 32767 V -32768 H -32768 Z"
                 style="fill:url(#radialGradient578);stroke:none"
                 id="path582"
                 inkscape:connector-curvature="0" /></g></g></g></g></mask><radialGradient
       fx="0"
       fy="0"
       cx="0"
       cy="0"
       r="1"
       gradientUnits="userSpaceOnUse"
       gradientTransform="matrix(39.585934,0,0,-39.585934,295.22949,351.37744)"
       spreadMethod="pad"
       id="radialGradient598"><stop
         style="stop-opacity:1;stop-color:#7c97b5"
         offset="0"
         id="stop592" /><stop
         style="stop-opacity:1;stop-color:#7c97b5"
         offset="0.42662523"
         id="stop594" /><stop
         style="stop-opacity:1;stop-color:#ffffff"
         offset="1"
         id="stop596" /></radialGradient><clipPath
       clipPathUnits="userSpaceOnUse"
       id="clipPath716"><path
         d="m 127.883,378.69 h 79.173 v -79.172 h -79.173 z"
         id="path714"
         inkscape:connector-curvature="0" /></clipPath><clipPath
       clipPathUnits="userSpaceOnUse"
       id="clipPath720"><path
         d="m 207.056,339.104 c 0,-21.863 -17.724,-39.586 -39.587,-39.586 -21.863,0 -39.586,17.723 -39.586,39.586 0,21.862 17.723,39.586 39.586,39.586 21.863,0 39.587,-17.724 39.587,-39.586"
         id="path718"
         inkscape:connector-curvature="0" /></clipPath><radialGradient
       fx="0"
       fy="0"
       cx="0"
       cy="0"
       r="1"
       gradientUnits="userSpaceOnUse"
       gradientTransform="matrix(39.586182,0,0,-39.586182,167.46924,339.10352)"
       spreadMethod="pad"
       id="radialGradient732"><stop
         style="stop-opacity:1;stop-color:#ffffff"
         offset="0"
         id="stop726" /><stop
         style="stop-opacity:1;stop-color:#ffffff"
         offset="0.42662523"
         id="stop728" /><stop
         style="stop-opacity:0;stop-color:#ffffff"
         offset="1"
         id="stop730" /></radialGradient><mask
       maskUnits="userSpaceOnUse"
       x="0"
       y="0"
       width="1"
       height="1"
       id="mask734"><g
         id="g744"><g
           id="g742"><g
             id="g740"><g
               id="g738"><path
                 d="M -32768,32767 H 32767 V -32768 H -32768 Z"
                 style="fill:url(#radialGradient732);stroke:none"
                 id="path736"
                 inkscape:connector-curvature="0" /></g></g></g></g></mask><radialGradient
       fx="0"
       fy="0"
       cx="0"
       cy="0"
       r="1"
       gradientUnits="userSpaceOnUse"
       gradientTransform="matrix(39.586182,0,0,-39.586182,167.46924,339.10352)"
       spreadMethod="pad"
       id="radialGradient752"><stop
         style="stop-opacity:1;stop-color:#7c97b5"
         offset="0"
         id="stop746" /><stop
         style="stop-opacity:1;stop-color:#7c97b5"
         offset="0.42662523"
         id="stop748" /><stop
         style="stop-opacity:1;stop-color:#ffffff"
         offset="1"
         id="stop750" /></radialGradient><clipPath
       clipPathUnits="userSpaceOnUse"
       id="clipPath778"><path
         d="M 134.552,273.771 H 202.7 v -68.147 h -68.148 z"
         id="path776"
         inkscape:connector-curvature="0" /></clipPath><clipPath
       clipPathUnits="userSpaceOnUse"
       id="clipPath782"><path
         d="m 202.7,239.698 c 0,-18.82 -15.256,-34.074 -34.074,-34.074 -18.818,0 -34.074,15.254 -34.074,34.074 0,18.818 15.256,34.073 34.074,34.073 18.818,0 34.074,-15.255 34.074,-34.073"
         id="path780"
         inkscape:connector-curvature="0" /></clipPath><radialGradient
       fx="0"
       fy="0"
       cx="0"
       cy="0"
       r="1"
       gradientUnits="userSpaceOnUse"
       gradientTransform="matrix(34.073731,0,0,-34.073731,168.62598,239.69727)"
       spreadMethod="pad"
       id="radialGradient794"><stop
         style="stop-opacity:1;stop-color:#ffffff"
         offset="0"
         id="stop788" /><stop
         style="stop-opacity:1;stop-color:#ffffff"
         offset="0.42662523"
         id="stop790" /><stop
         style="stop-opacity:0;stop-color:#ffffff"
         offset="1"
         id="stop792" /></radialGradient><mask
       maskUnits="userSpaceOnUse"
       x="0"
       y="0"
       width="1"
       height="1"
       id="mask796"><g
         id="g806"><g
           id="g804"><g
             id="g802"><g
               id="g800"><path
                 d="M -32768,32767 H 32767 V -32768 H -32768 Z"
                 style="fill:url(#radialGradient794);stroke:none"
                 id="path798"
                 inkscape:connector-curvature="0" /></g></g></g></g></mask><radialGradient
       fx="0"
       fy="0"
       cx="0"
       cy="0"
       r="1"
       gradientUnits="userSpaceOnUse"
       gradientTransform="matrix(34.073731,0,0,-34.073731,168.62598,239.69727)"
       spreadMethod="pad"
       id="radialGradient814"><stop
         style="stop-opacity:1;stop-color:#7c97b5"
         offset="0"
         id="stop808" /><stop
         style="stop-opacity:1;stop-color:#7c97b5"
         offset="0.42662523"
         id="stop810" /><stop
         style="stop-opacity:1;stop-color:#ffffff"
         offset="1"
         id="stop812" /></radialGradient></defs><sodipodi:namedview
     pagecolor="#ffffff"
     bordercolor="#666666"
     borderopacity="1"
     objecttolerance="10"
     gridtolerance="10"
     guidetolerance="10"
     inkscape:pageopacity="0"
     inkscape:pageshadow="2"
     inkscape:window-width="1920"
     inkscape:window-height="1001"
     id="namedview4"
     showgrid="false"
     inkscape:zoom="1.0012632"
     inkscape:cx="139.5092"
     inkscape:cy="225.89045"
     inkscape:window-x="-9"
     inkscape:window-y="-9"
     inkscape:window-maximized="1"
     inkscape:current-layer="g10" /><g
     id="g10"
     inkscape:groupmode="layer"
     inkscape:label="3380859"
     transform="matrix(1.3333333,0,0,-1.3333333,0,666.66667)"><g
       id="g14"><g
         id="g16"
         clip-path="url(#clipPath20)"><g
           id="g22"
           transform="translate(95.1191,210.7871)"><path
             d="m 0,0 c -1.288,0.412 -5.037,7.529 -5.228,9.184 -0.385,3.418 2.263,5.738 2.31,9.165 -1.979,0.277 -4.147,0.13 -6.184,0.255 -0.772,3.174 -0.309,6.128 -3.492,7.187 -3.344,1.118 -3.294,-2.029 -6.781,-1.443 -4.832,0.813 -2.993,11.033 -2.829,14.935 4.951,-1.001 5.927,5.211 10.104,5.901 2.696,0.439 3.865,-2.324 6.304,-2.467 2.159,-0.132 5.755,2.516 7.638,3.366 1.181,-2.001 1.217,-4.266 2.036,-6.242 0.967,-2.32 2.858,-2.906 2.957,-5.818 -0.016,3.569 1.392,7.929 2.96,12.048 4.519,1.139 8.258,4.217 9.627,8.341 0.78,2.357 -0.248,3.374 1.286,5.534 1.093,1.545 3.614,2.305 5.003,3.722 4.327,4.44 4.009,4.544 10.164,5.21 3.666,0.399 6.572,1.605 9.569,3.933 -2.207,-0.033 -8.724,-0.654 -9.619,1.522 -1.585,3.834 4.546,5.884 6.821,6.194 7.462,1.014 10.705,-0.605 16.551,4.854 -2.245,1.119 -6.696,1.176 -7.865,3.24 -1.164,2.049 0.107,5.953 -1.1,8.312 -5.62,-1.841 -3.614,1.436 -7.559,3.475 -3.459,1.787 -8.295,-1.403 -9.229,-4.114 -1.594,-4.673 1.427,-6.735 -2.539,-10.959 -2.941,-3.127 -7.756,-5.93 -11.648,-7.668 -1.817,3.408 -1.472,5.848 -3.364,8.548 -1.325,1.885 -2.385,1.054 -3.275,3.517 -0.714,1.993 -0.041,5.536 0.065,7.65 4.752,1.688 10.636,4.708 14.489,7.755 2.438,1.922 3.837,3.101 6.641,3.969 2.858,0.875 5.313,-0.594 6.854,2.82 -0.283,0.059 -0.562,0.109 -0.845,0.168 -0.704,5.76 9.676,1.045 11.071,-2.654 0.378,-1.001 0.762,-2.048 0.474,-3.24 -0.276,-1.146 -2.32,-2.335 -2.32,-2.418 -0.069,-3.541 3.373,-3.566 6.765,-4.946 0.972,2.081 -0.546,3.481 -2.482,4.352 1.947,0.319 3.348,1.554 3.293,3.421 -1.528,0.163 -1.809,1.087 -2.954,1.644 0.893,0.427 1.717,1.619 2.945,1.902 0.198,2.203 0.274,4.528 -0.489,6.627 -4.105,0.233 -5.893,0.578 -9.209,1.892 -4.761,1.883 -6.065,-0.108 -10.999,0.04 -0.116,-1.96 -0.215,-3.966 0.436,-5.734 l -0.485,-0.484 c -2.566,-5.035 -5.008,2.461 -7.649,2.866 0.252,-1.888 1.084,-3.357 1.183,-5.216 -5.142,0.361 -8.614,-2.896 -13.877,-2.516 -4.145,0.294 -9.725,0.552 -13.672,1.373 -4.503,0.928 -6.329,2.287 -11.016,2.041 -3.296,-0.172 -6.786,-0.225 -10.068,-0.026 -1.704,0.102 -2.641,1.076 -4.362,0.891 -1.352,-0.145 -1.39,-1.839 -2.524,-1.871 -4.837,-0.126 -6.27,4.375 -11.189,4.891 -2.082,0.216 -3.295,-0.784 -5.208,-0.979 -5.531,-0.571 -12.076,1.768 -17.357,0.486 -4.954,-1.212 -6.463,-6.348 -11.316,-9.217 -4.643,-2.75 -9.27,-5.345 -10.629,-10.946 9.075,-3.299 10.222,0.079 19.535,2.058 4.245,0.901 12.948,-1.981 16.095,-5.235 2.086,-2.15 2.098,-10.472 0.719,-13.524 -1.06,-2.348 -5.549,-3.91 -7.185,-6.35 -2.39,-3.555 -1.922,-4.288 -0.15,-7.938 -2.535,-0.76 -5.899,-5.596 -6.683,-7.855 2.287,-0.796 5.16,-1.538 7.225,-2.885 3.47,-2.256 2.949,-3.187 2.899,-7.975 -0.07,-5.699 -1.261,-13.924 5.177,-16.606 -2.002,3.919 -1.074,11.153 -0.723,15.658 2.078,-6.383 6.764,-5.781 6.564,-12.613 -0.213,-7.16 3.498,-10.422 10.033,-12.997 5.534,-2.17 12.095,-0.704 17.664,-3.935 C -6.37,11.602 -7.473,9.479 -6.303,5.478 -5.45,2.55 -3.126,-1.603 0,0"
             style="fill:#cedddd;fill-opacity:1;fill-rule:nonzero;stroke:none"
             id="path24"
             inkscape:connector-curvature="0" /></g><g
           id="g26"
           transform="translate(206.5962,324.7329)"><path
             d="m 0,0 c -0.545,2.731 -4.245,4.34 0.602,6.06 1.964,0.7 3.687,0.211 5.638,0.66 2.097,0.489 1.246,0.341 1.761,2.193 0.438,1.589 -0.042,1.825 1.728,2.908 0.717,0.43 1.376,0.337 2.171,0.933 0.882,0.669 1.165,1.594 2.139,1.961 l -1.207,0.726 c -0.946,0 -2.249,-0.232 -3.157,0.039 -1.304,0.387 -1.877,1.36 -3.381,1.414 -1.157,0.03 -2.403,-0.398 -3.606,-0.489 -2.635,-0.195 -4.924,0.594 -7.379,0.435 -2.395,-0.152 -4.495,-1.632 -6.934,-1.888 -2.216,-0.226 -4.587,-0.651 -6.811,-0.481 -1.546,0.112 -2.81,0.557 -4.336,0.733 -1.817,0.203 -3.251,-0.704 -4.983,-0.749 -3.549,-0.084 -6.637,3.709 -10.293,3.657 -2.519,-0.036 -4.825,-1.707 -7.441,-1.237 -1.544,0.276 -2.256,1.135 -3.916,0.99 -2.396,-0.212 -4.26,-2.649 -6.438,-3.329 -1.389,-0.433 -2.905,0.179 -4.269,-0.338 -1.668,-0.633 -2.625,-2.085 -4.595,-2.391 -0.968,-0.15 -2.076,0.014 -3.056,-0.035 -0.324,-3.45 7.684,-2.373 9.713,-2.147 1.985,0.216 3.544,1.258 5.19,1.755 2.016,0.604 4.059,0.178 6.297,0.181 2.491,0.009 3.442,1.456 5.624,1.937 1.037,0.232 5.703,0.203 6.288,-0.775 1.214,-2.032 -2.665,-2.251 -3.847,-2.373 -1.902,-0.188 -2.971,-0.166 -4.246,-1.698 1.586,-1.575 4.903,-0.188 6.72,-1.436 1.867,-1.288 0.036,-6.231 3.294,-6.094 -0.014,-2.7 -0.088,-3.615 -2.178,-4.331 -2.227,-0.755 -3.256,0.239 -3.353,-2.892 -0.134,-4.361 4.268,-3.316 5.339,-6.841 0.585,-1.912 0.807,-7.484 4.36,-3.874 0.969,0.978 0.452,2.298 1.696,3.46 1.311,1.218 3.574,1.285 4.976,2.387 1.476,1.162 1.727,2.417 3.767,3.109 1.514,0.511 2.97,0.412 4.262,1.089 1.464,0.772 2.331,2.333 3.941,2.849 1.124,0.363 2.595,-0.021 3.763,0.291 C -4.095,-3.093 0.488,-2.478 0,0"
             style="fill:#cedddd;fill-opacity:1;fill-rule:nonzero;stroke:none"
             id="path28"
             inkscape:connector-curvature="0" /></g><g
           id="g30"
           transform="translate(166.7109,190.8369)"><path
             d="m 0,0 c -2.926,1.149 -6.196,0.428 -7.996,3.018 -0.608,0.883 -1.019,3.691 -1.984,3.972 -0.313,0.092 -2.548,-0.945 -3.152,-1.05 -2.415,-0.443 -5.88,-1.922 -8.206,-1.372 -0.398,3.392 0.358,7.076 0.167,10.59 -1.294,0.075 -3.033,-0.312 -4.275,0.03 -2.203,0.612 -1.973,2.62 -3.811,3.841 -1.277,0.841 -3.045,0.557 -4.642,1.353 -1.737,0.862 -3.043,2.774 -4.672,3.583 -1.902,0.955 -3.926,1.667 -5.93,2.968 -2.059,1.327 -4.114,1.801 -6.661,2.304 h -1.453 c -1.663,-1.522 -0.218,-2.67 0.296,-3.931 0.411,-0.994 1.548,-4.366 -0.961,-4.316 -1.969,0.042 -0.566,2.421 -1.063,3.654 -0.239,0.598 -1.368,1.111 -1.625,1.736 -0.28,0.659 -0.047,1.88 -0.125,2.573 -0.817,0.065 -1.663,0.065 -2.487,0.011 -0.114,-4.465 -3.191,-4.499 -7.068,-5.091 -0.424,-1.701 0.965,-1.787 1.199,-2.922 0.482,-2.282 -1.581,-2.71 -2.175,-4.382 -0.564,-1.61 0.539,-1.44 0.698,-3.075 0.224,-2.377 -1.901,-3.193 -3.616,-4.409 -1.832,-1.297 -3.779,-2.487 -4.571,-4.794 -0.994,-2.892 0.127,-3.097 2.144,-4.36 3.294,-2.084 1.753,-4.878 1.962,-8.427 0.734,-0.278 1.323,-0.656 2.108,-0.809 0.378,-1.591 1.952,-2.296 2.817,-3.409 1.168,-1.519 1.762,-3.473 2.097,-5.669 2.578,-0.28 9.111,1.468 10.136,-0.146 0.841,-1.325 -0.515,-3.013 -0.201,-4.112 0.674,-2.324 3.56,-1.375 5.734,-1.805 -0.86,-1.337 -1.906,-2.158 -3.568,-2.046 -0.366,-2.216 1.187,-3.21 1.57,-5.113 -1.002,-0.513 -4.145,-2.584 -4.37,-3.536 -0.467,-2.049 3.054,-3.511 2.434,-5.992 -4.059,-0.342 -2.19,-4.626 -2.322,-7.056 1.61,-0.909 3.423,-1.193 5.055,-2.051 0.067,-2.404 0.157,-4.84 0.265,-7.205 0.076,-1.496 -0.746,-5.325 0.081,-6.553 0.38,-0.568 1.675,-0.288 2.141,-0.904 0.285,-0.384 0.107,-0.814 0.387,-1.263 0.663,-1.069 0,-1.231 1.016,-2.165 0.942,-0.87 1.715,-0.167 2.188,-1.467 0.25,-0.696 -0.248,-2.568 -0.522,-3.201 -0.603,-1.424 -2.962,-3.522 -2.189,-5.266 0.315,-0.708 2.482,-1.802 3.152,-2.377 0.931,-0.805 1.915,-1.785 2.677,-2.755 1.547,-1.959 2.719,-5.341 5.906,-5.308 3.458,0.037 3.241,3.782 3.534,6.279 -1.66,-0.28 -1.597,0.445 -2.49,0.995 -1.908,1.191 -2.265,1.667 -4.977,1.743 -0.553,2.221 3.124,3.52 3.882,5.216 1.784,4.011 -3.208,1.781 -4.84,4.859 2.21,2.091 3.963,0.647 6.564,0.541 5.376,-0.222 0.231,2.857 0.715,5.481 3.077,0.235 8.345,2.381 7.68,6.346 -3.739,0.214 -7.007,-1.515 -6.724,3.146 3.215,0.151 5.501,-1.681 8.497,-0.258 3.691,1.754 5.088,7.303 6.732,10.767 1.157,2.456 1.772,7.726 4.549,8.793 2.906,1.111 6.758,-1.157 9.499,0.791 -0.964,2.673 -2.994,4.762 -2.673,7.788 0.331,3.072 2.26,5.55 2.911,8.474 0.539,2.418 1.032,3.923 2.295,6.053 0.846,1.421 2.591,4.429 2.812,6.003 C 4.917,-3.05 2.039,-0.812 0,0"
             style="fill:#cedddd;fill-opacity:1;fill-rule:nonzero;stroke:none"
             id="path32"
             inkscape:connector-curvature="0" /></g><g
           id="g34"
           transform="translate(303.1709,224.9512)"><path
             d="m 0,0 c -1.627,1.599 -4.394,2.868 -6.297,4.764 -3.507,3.492 -5.035,7.447 -7.089,11.617 -1.945,3.959 -3.588,5.694 -3.427,10.39 1.951,-0.408 3.351,-3.818 4.431,-5.467 1.358,-2.063 3.13,-3.733 4.491,-5.735 0.826,-1.211 1,-3.034 2.015,-4.134 0.75,-0.816 1.997,-0.985 2.697,-1.741 2.044,-2.189 2.236,-4.34 2.803,-7.199 C -0.23,1.747 -0.131,0.873 0.013,-0.012 0.011,-0.01 0.011,-0.004 0,0 m 94.893,-4.819 c 0.973,-2.685 -1.786,-5.677 -1.247,-8.386 0.851,3.836 1.652,7.073 2.893,10.91 3.447,0.898 3.467,-3.187 4.452,-5.149 1.489,-2.97 3.824,-3.996 6.913,-4.837 2.086,3.141 5.892,5.226 6.011,9.023 0.109,3.471 -4.527,3.59 -6.291,6.722 -1.223,2.178 -4.623,8.644 -0.818,10.002 2.717,0.968 5.894,-4.512 6.452,-6.927 0.849,1.501 1.093,3.449 1.984,4.866 1.449,2.309 2.233,1.723 4.073,2.995 2.03,1.389 5.598,3.807 6.881,6.014 1.613,2.777 0.818,2.682 -1.328,4.757 -4.072,3.938 -3.706,5.522 -2.88,11.155 0.184,1.288 1.113,4.6 0.215,5.67 -1.984,2.385 -3.573,-1.058 -5.082,-1.352 -3.014,-0.578 -2.961,3.068 -0.607,5.254 2.087,1.922 4.465,0.476 7.07,-1.09 2.177,-1.304 13.374,-10.791 14.925,-6.395 -3.182,1.752 -7.635,2.522 -8.449,6.421 -1.284,6.129 3.79,4.422 6.794,6.41 4.059,2.684 2.312,15.02 -1.048,18.454 -3.05,3.115 -5.932,0.063 -9.566,1.619 -1.204,0.511 -2.958,2.436 -3.293,3.553 -0.84,2.802 0.484,2.44 1.927,3.239 0.519,0.289 1.655,0.068 2.281,0.32 0.831,0.334 1.361,1.259 2.103,1.637 1.88,0.947 2.345,1.053 4.349,0.307 3.195,-1.185 6.283,-4.362 8.411,0.282 0.499,1.093 0.128,3.271 0.431,4.51 2.904,-0.046 5.641,1.403 8.543,0.967 0.103,-2.435 -0.143,-3.031 -1.172,-4.936 -0.555,-1.01 -3.02,-3.63 -2.998,-4.679 0.025,-2.612 7.626,-6.99 9.802,-8.743 4.1,-3.306 4.71,0.892 3.463,4.606 -0.717,2.137 -1.119,2.148 -2.653,3.411 -1.893,1.555 -4.32,2.073 -3.442,5.176 2.522,-0.281 5.775,0.675 8.522,0.696 3.633,0.034 5.085,1.005 5.595,4.793 -2.472,-0.388 -3.936,1.52 -3.478,3.877 2.353,0.392 5.886,-2.002 7.719,-1.243 4.072,1.681 -2.371,3.696 -4.194,3.874 -6.859,0.662 -13.818,-0.146 -20.025,2.981 -3.326,1.681 -6.062,1.588 -9.67,0.895 -1.523,-0.296 -3.658,-1.067 -4.995,-0.676 -1.201,0.345 -1.834,1.834 -3.074,2.229 -0.917,0.294 -1.995,-0.068 -2.943,0.052 -3.85,0.483 -7.398,0.361 -11.419,0.399 -1.287,0.016 -2.921,0.334 -4.046,0.321 -2.219,-0.013 -4.535,-1.241 -7.133,-2.061 -1.43,2.682 -6.17,6.75 -9.497,6.209 -2.572,-0.414 -3.068,-3.523 -4.785,-4.082 -0.967,-0.318 -0.666,-0.044 -1.84,0 -0.675,0.022 -0.771,1.166 -1.362,1.271 -0.867,0.166 -1.467,-0.515 -1.883,-0.465 -2.91,0.364 -7.002,1.878 -10.046,1.638 -3.829,-0.301 -4.95,-2.269 -8.982,-1.312 -2.761,0.655 -5.137,2.222 -7.755,3.006 1.887,0.544 5.409,1.126 6.431,2.856 -3.06,0.894 -7.648,2.047 -10.886,1.918 -3.452,-0.139 -6.773,-4.322 -9.724,-3.93 -2.033,0.266 -2.834,1.85 -5.269,1.675 -2.875,-0.212 -5.28,-0.977 -8.315,-0.977 -3.272,0 -7.262,0.251 -7.394,-4.075 2.808,-0.992 2.605,-2.654 2.499,-5.244 -2.183,-1.185 -5.552,-1.412 -6.661,1.248 -1.28,3.059 1.255,4.937 -3.028,5.819 -1.616,0.327 -8.504,0.537 -8.299,-1.232 0.385,-3.291 7.379,-1.279 6.036,-5.822 -3.174,-1.425 -4.615,-1.135 -7.373,0.588 -1.839,1.142 -1.277,1.453 -3.449,1.938 -2.568,0.572 -5.661,-0.052 -8.124,-0.703 -0.715,-2.072 -3.427,-2.32 -5.152,-3.354 -1.718,-1.03 -2.842,-2.27 -4.292,-3.733 -1.635,-1.639 -3.925,-4.585 -6.42,-3.46 -1.663,0.745 -2.612,4.123 -2.21,5.71 1.658,0.022 2.692,-1.229 3.758,0.201 1.633,2.183 -1.116,3.666 -2.867,4.069 -1.989,0.464 -3.413,-0.456 -5.413,-0.367 -3.067,0.132 -5.793,2.096 -9.023,2.281 -5.994,0.344 -12.797,-2.067 -18.022,-4.789 -1.604,-0.831 -9.464,-8.019 -9.216,-9.418 0.295,-1.702 3.211,-1.59 4.261,-2.251 1.22,-0.771 2.055,-2.7 3.793,-3.337 2.569,-0.925 6.634,-1.719 9.489,-1.836 6.73,-0.276 1.743,3.622 1.226,6.456 -0.095,0.54 0.144,3.592 0.407,4.123 1.163,2.374 1.689,1.466 3.705,2.313 1.676,0.699 3.103,2.67 4.644,0.689 1.149,-1.466 -0.761,-5.171 -1.28,-6.498 1.28,-1.414 11.895,-0.219 6.821,-4.256 -0.04,-0.027 -0.072,-0.044 -0.104,-0.074 -1.396,-0.168 -2.645,-0.329 -3.339,-0.421 -0.184,-0.014 -0.372,-0.037 -0.551,-0.063 0,0 0.006,-0.004 0.017,-0.004 -0.055,-0.009 -0.064,-0.004 -0.017,0.004 -0.491,0.105 -1.02,0.113 -1.576,0 -2.581,-0.552 -3.484,-4.292 -5.15,-6.149 -3.23,-3.582 -4.83,-1.033 -8.756,-1.287 -2.111,-0.135 -4.259,-1.36 -6.436,-1.931 -2.979,-0.777 -8.565,-1.788 -10.768,-4.124 -1.056,-1.109 -0.925,-2.488 -1.882,-3.493 -1.19,-1.247 -3.593,-0.401 -2.823,-3.408 0.882,-0.06 1.656,-0.856 2.504,-0.966 0.36,-1.555 -1.384,-6.616 -2.851,-7.425 -2.798,-1.548 -5.347,2.402 -7.089,3.588 -0.596,-0.854 -1.861,-2.191 -2.064,-3.221 -0.198,-1.047 0.769,-1.41 0.766,-2.678 -0.003,-2.336 -0.628,-4.736 -3.184,-5.452 -0.095,-0.191 -0.125,-0.39 -0.1,-0.605 3.781,-2.705 7.663,-1.106 11.422,0.585 4.676,2.111 4.548,10.86 10.604,8.909 -0.29,7.3 6.756,0.395 8.379,-0.775 1.589,-1.145 3.128,-1.291 4.501,-3.022 0.762,-0.957 0.347,-2.086 0.938,-2.86 0.451,-0.581 1.669,-1.05 2.253,-1.768 -0.974,3.981 -0.925,5.823 -3.258,9.274 -1.824,2.701 -2.14,7.436 2.674,4.064 1.867,-1.321 4.799,-5.468 5.562,-7.52 1.22,-3.258 0.665,-8 5.558,-7.463 -3.569,3.925 2.46,5.516 5.286,5.385 0.323,-2.246 0.012,-4.982 1.735,-6.077 1.624,-1.042 6.09,-0.538 7.958,-0.359 1.696,0.161 4.206,1.589 5.929,0.999 1.971,-0.666 0.846,-0.342 1.522,-1.941 0.767,-1.818 0.296,-4.128 -0.302,-5.812 l 0.318,1.291 c -6.143,-2.861 -19.416,-9.317 -20.447,1.903 -2.752,0.765 -6.357,-3.261 -3.13,-4.567 -1.956,-1.941 -8.292,-2.095 -10.991,-1.18 -1.225,0.421 -6.171,2.715 -6.358,4.166 -0.235,1.769 2.257,2.91 2.461,4.804 -2.813,-0.505 -2.696,3.074 -5.203,2.703 -1.106,-0.168 -1.409,-1.677 -2.416,-2.041 -1.395,-0.507 -3.699,0.216 -5.053,0.341 -3.378,0.328 -7.517,1.202 -10.577,-0.663 -0.99,-0.602 -1.459,-1.741 -2.6,-2.317 -1.869,-0.928 -4.527,0.151 -5.848,-1.862 -0.698,-1.061 0.092,-2.645 -0.226,-3.799 -0.48,-1.777 -0.909,-1.332 -1.771,-2.935 -0.767,-1.429 -0.818,-3.65 -1.592,-4.892 -1.584,-2.557 -4.612,-3.466 -6.974,-5.091 -1.458,-0.999 -5.221,-3.706 -4.854,-5.866 0.292,-1.733 2.315,-0.853 2.237,-3.175 -0.054,-1.519 -3.641,-3.756 -4.408,-4.913 1.627,-0.389 2.041,-1.262 2.775,-1.929 -0.195,0.176 -0.069,-1.201 0.04,-1.376 0.293,-0.461 1.468,-0.419 1.568,-0.617 1.68,-3.315 0.578,-6.792 2.565,-9.88 3.194,-4.954 9.167,-9.36 15.292,-9.796 6.37,-0.462 8.489,6.354 14.566,5.522 2.318,-0.321 7.038,-1.861 7.976,-4.441 0.961,-2.661 -3.017,-6.774 -4.2,-9.116 1.134,-0.936 2.581,-1.66 3.81,-2.274 -2.862,-0.975 -5.59,-2.498 -3.173,-4.899 2.405,-2.373 4.555,-0.546 4.022,-4.98 3.986,0.072 7.625,-2.099 7.876,-6.254 0.165,-2.808 0.448,-1.485 -1.595,-3.787 -1.582,-1.788 -1.946,-1.5 -2.262,-4.294 -0.273,-2.389 -0.338,-1.751 0.495,-4.55 0.64,-2.119 0.444,-2.531 1.584,-4.228 1.304,-1.952 1.843,-2.213 2.509,-4.696 0.504,-1.865 0.171,-4.25 2.891,-4.663 -0.587,-4.296 3.672,-7.568 4.211,-11.551 0.297,-2.202 -1.338,-5.744 -0.335,-7.75 1.056,-2.124 4.672,-2.277 6.491,-0.918 2.097,1.571 1.539,3.994 4.72,4.803 1.979,0.503 2.502,-0.413 3.661,0.949 0.759,0.9 0.409,2.452 1.689,3.728 1.815,1.815 4.406,1.938 6.617,3.302 3.624,2.219 3.511,4.44 4.912,8.163 -1.215,0.75 -3.075,4.211 -2.593,5.795 0.862,2.81 6.937,5.235 8.972,6.721 4.055,2.964 1.372,4.013 0.339,7.341 -1.088,3.502 0.787,6.395 2.729,9.21 -1.358,0.163 -2.297,1.348 -3.62,1.6 -1.85,0.361 -4.929,-0.902 -5.909,1.515 -0.49,1.21 1.142,4.184 2.591,4.374 1.593,0.213 1.972,-1.109 3.296,-2.016 1.616,2.068 2.542,3.897 4.593,5.465 1.118,0.852 2.454,0.937 3.506,2.006 1.607,1.628 2.011,3.638 3.171,5.608 2.044,3.497 5.509,4.166 8.413,6.936 2.353,2.246 2.083,4.577 1.929,7.71 -4.493,0.717 -8.798,-2.636 -12.316,1.906 -0.148,0.188 -0.279,0.39 -0.397,0.597 0.249,-0.1 0.519,-0.174 0.822,-0.214 2.741,-0.399 5.106,3.303 7.511,4.509 2.916,1.455 6.369,1.547 8.986,3.687 1.418,1.164 1.364,2.55 2.176,3.678 1.625,2.237 4.364,3.379 6.254,5.541 -0.505,0.752 -1.374,1.972 -2.253,2.45 -0.881,0.472 -2.571,-0.026 -3.314,0.453 -2.01,1.302 -1.826,4.412 -2.315,6.758 -3.21,0.056 -3.215,-4.434 -5.489,-5.059 -2.756,-0.762 -3.684,5.087 -4.695,6.985 -1.319,2.5 -3.853,4.86 -1.798,7.498 0.068,0.088 0.146,0.162 0.236,0.228 l 1.726,0.396 c 0,-0.015 -0.004,-0.027 -0.004,-0.041 -0.997,-7.888 6.256,-7.334 12.054,-7.374 0.541,-2.583 0.513,-6.341 2.77,-7.433 3.68,-1.782 7.769,2.954 11.16,1.803 1.755,-0.593 3.461,-3.159 4.895,-4.36 3.534,-2.939 5.43,-2.126 10.424,-1.33 0.384,-3.47 -0.584,-7.708 0.732,-10.967 1.193,-2.962 3.834,-5.317 4.872,-8.386 1.195,-3.525 4.142,-9.447 4.843,-1.592 0.449,5.083 -3.065,7.491 0.54,12.332 2.222,2.987 5.534,6.851 8.31,9.303 3.704,3.254 8.222,-2.043 11.886,-4.465 4.119,-2.725 6.217,-5.15 8.298,-9.368 0.875,-1.77 2.994,-3.237 3.577,-4.875"
             style="fill:#cedddd;fill-opacity:1;fill-rule:nonzero;stroke:none"
             id="path36"
             inkscape:connector-curvature="0" /></g><g
           id="g38"
           transform="translate(306.0117,167.0654)"><path
             d="m 0,0 c -3.34,-2.852 -0.578,-2.208 -0.369,-5.733 0.199,-3.423 -3.653,-3.74 -4.874,-6.428 1.045,-2.42 4.352,-1.693 6.474,-1.628 1.039,2.187 3.236,3.04 4.577,4.91 1.171,1.622 2.353,4.215 3.002,6.107 C 9.811,0.097 8.114,3.009 8.38,5.588 7.463,4.972 7.043,4.984 5.787,4.36 3.625,3.269 1.818,1.552 0,0"
             style="fill:#cedddd;fill-opacity:1;fill-rule:nonzero;stroke:none"
             id="path40"
             inkscape:connector-curvature="0" /></g><g
           id="g42"
           transform="translate(314.3916,172.6533)"><path
             d="M 0,0 C 0.126,0.086 0.272,0.187 0.428,0.305 1.36,1.018 1.513,2.049 2.603,2.557 L 0.667,1.911 C 0.261,1.298 0.067,0.658 0,0"
             style="fill:#cedddd;fill-opacity:1;fill-rule:nonzero;stroke:none"
             id="path44"
             inkscape:connector-curvature="0" /></g><g
           id="g46"
           transform="translate(481.9785,149.1387)"><path
             d="m 0,0 c -0.622,1.894 -0.721,3.166 -1.637,5.164 -0.427,0.919 -0.643,3.663 -1.362,4.386 -1.122,1.143 -2.953,-0.037 -4.033,1.742 -0.845,1.38 -0.176,6.181 -0.318,7.552 -0.24,2.281 0.073,5.605 -1.026,7.602 -1.752,-0.167 -3.474,0.328 -5.176,0.595 h -0.652 c 3.641,-1.392 0.903,-8.9 -2.263,-9.959 -7.796,-2.589 -5.849,7.575 -4.874,11.19 -3.907,0.712 -3.535,-1.433 -5.85,-3.097 -0.874,-0.636 -2.603,-0.24 -3.413,-1.427 -0.775,-1.141 0.085,-2.568 -0.961,-3.88 -2.464,-3.098 -5.585,-1.234 -7.175,1.353 -0.431,0.693 0.109,2.824 -1.29,2.631 -1.059,-0.15 -0.643,-3.999 -1.215,-4.908 -1.842,-2.919 -7.076,-4.043 -9.62,-6.459 -0.919,-0.872 -1.682,-2.265 -2.801,-2.807 -1.388,-0.665 -3.247,0.003 -4.603,-1.089 -2.864,-2.298 -2.705,-6.34 -2.415,-9.311 0.509,-5.409 -2.576,-10.022 -2.239,-15.436 5.452,-2.092 8.201,5.305 13.177,6.952 4.454,1.479 10.436,2.108 15.166,1.996 -0.578,-2.383 -0.377,-6.008 2.688,-6.049 2.332,-0.034 3.463,3.463 6.338,2.814 0.239,-3.252 0,-7.104 -1.449,-10.081 2.058,-0.938 3.485,-0.656 5.686,-0.545 0.915,0.052 3.097,-0.464 3.874,-0.033 0.91,0.504 0.764,1.418 1.416,2.009 0.581,0.524 1.081,0.989 1.823,1.642 3.849,3.365 10.225,3.565 9.314,10.146 -0.391,0.078 -0.901,0.221 -1.324,0.248 1.423,2.142 8.354,0.417 8.806,4.032 C 0.047,-3.337 0.524,-1.578 0,0"
             style="fill:#cedddd;fill-opacity:1;fill-rule:nonzero;stroke:none"
             id="path48"
             inkscape:connector-curvature="0" /></g><g
           id="g50"
           transform="translate(418.7236,191.6064)"><path
             d="m 0,0 c 1.627,-1.489 5.012,-1.062 6.974,-1.062 2.53,0 4.243,0.839 4.629,3.716 0.209,1.568 -0.603,2.702 0.966,3.911 1.556,1.216 2.845,0.819 1.402,3.203 -0.667,1.09 -2.057,2.324 -1.295,3.895 0.928,1.91 2.525,0.257 3.93,0.773 l 0.644,0.646 c -1.446,-0.571 -3.771,-0.172 -4.699,1.323 -0.807,1.317 -0.444,2.227 -2.544,1.878 C 10.218,15.139 4.518,15.803 3.124,13.791 2.369,12.696 2.639,11.31 1.947,10.196 0.914,8.523 -0.641,9.182 -2.256,8.602 -2.5,7.932 -3.786,6.831 -3.396,6.037 -3.043,5.318 -1.62,5.37 -1.145,4.42 -0.366,2.874 -1.342,1.235 0,0"
             style="fill:#cedddd;fill-opacity:1;fill-rule:nonzero;stroke:none"
             id="path52"
             inkscape:connector-curvature="0" /></g><g
           id="g54"
           transform="translate(413.3711,185.999)"><path
             d="m 0,0 c 0.069,1.829 0.556,1.937 -0.748,3.395 -0.949,1.057 -2.441,2.324 -2.935,3.899 -0.707,2.21 -0.448,3.061 -2.605,4.364 -1.605,0.968 -1.812,1.53 -3.041,3.022 -0.917,1.108 -2.047,1.762 -3.222,2.626 -1.046,0.768 -1.528,1.676 -2.299,2.737 -1.018,1.416 -1.449,1.288 -3.225,1.294 l -0.809,1.288 c -0.726,-1.286 2.277,-5.491 2.841,-6.939 1.111,-2.852 3.039,-4.594 4.708,-7.137 0.695,-1.059 1.236,-2.288 1.938,-3.401 0.931,-1.453 2.122,-2.029 3.586,-2.86 2.535,-1.434 2.358,-7 6.28,-6.434 C 0.396,-2.776 -0.045,-1.377 0,0"
             style="fill:#cedddd;fill-opacity:1;fill-rule:nonzero;stroke:none"
             id="path56"
             inkscape:connector-curvature="0" /></g><g
           id="g58"
           transform="translate(427.8574,180.376)"><path
             d="M 0,0 C 1.941,0.201 12.576,-0.462 12.302,2.877 9.028,3.236 6.745,4.642 3.425,4.844 -1.124,5.121 -4.135,1.135 -8.993,2.909 l -0.652,0.314 c -1.683,-1.436 2.08,-3.39 3.215,-3.548 C -4.282,-0.62 -1.992,-0.208 0,0"
             style="fill:#cedddd;fill-opacity:1;fill-rule:nonzero;stroke:none"
             id="path60"
             inkscape:connector-curvature="0" /></g><g
           id="g62"
           transform="translate(445.5029,203.4492)"><path
             d="M 0,0 C -0.618,1.678 -2.04,2.219 -3.916,1.948 -4.77,1.82 -5.437,1.409 -6.322,1.45 -7.462,1.51 -8.312,2.271 -9.529,2.111 L -9.69,1.948 c 1.667,-1.843 3.855,-1.859 6.28,-2.128 -0.368,-0.723 -1.131,-0.344 -1.924,-0.454 -1.209,-0.181 -1.98,-0.664 -2.826,-1.568 1.224,-0.143 2.659,-0.002 3.946,-0.078 -0.917,-1.374 -2.651,-1.628 -3.068,-3.526 -0.255,-1.161 -0.02,-2.796 0.037,-3.974 0.851,0.302 1.779,0.875 2.238,1.677 0.598,1.043 0.089,1.88 1.46,2.474 2.41,1.037 3.441,-1.776 3.404,-3.677 0.83,1.318 -0.296,4.363 -0.027,6.094 C 0.027,-2 0.459,-1.221 0,0"
             style="fill:#cedddd;fill-opacity:1;fill-rule:nonzero;stroke:none"
             id="path64"
             inkscape:connector-curvature="0" /></g><g
           id="g66"
           transform="translate(485.2187,179.8779)"><path
             d="m 0,0 c -1.378,1.306 -2.26,1.72 -3.27,3.439 -0.814,1.385 -1.687,2.939 -2.905,3.97 -1.143,0.967 -2.866,1.484 -3.221,3.067 -1.17,0.432 -2.291,1.18 -3.497,1.485 -1.018,0.258 -2.715,0.162 -3.601,0.796 -0.9,0.654 -1.107,2.501 -2.401,2.593 -1.178,0.082 -1.907,-1.583 -3.014,-2.026 -2.598,-1.033 -4.059,2.062 -5.452,3.641 -1.62,1.833 -2.722,1.143 -4.499,0.478 -0.205,-0.032 -0.744,-0.217 -1.055,-0.177 -0.038,-0.842 -0.038,-1.708 0,-2.533 0.902,-0.055 2.552,0.349 3.365,-0.017 1.111,-0.511 0.746,-1.153 0.833,-2.252 1.412,0.105 1.621,-1.409 2.547,-2.153 0.751,-0.592 2.781,-1.636 3.707,-1.899 -0.821,-2.375 -1.374,-4.555 0.983,-6.468 2.358,-1.917 6.426,-1.06 9.057,-0.805 2.012,0.197 4.117,0.01 6.141,-0.003 1.548,-0.005 1.232,0.221 2.224,-1.198 0.647,-0.916 1.629,-2.884 2.748,-3.3 0.679,-0.251 1.999,-0.03 2.729,0.009 C 1.701,-1.92 0.935,-0.878 0,0"
             style="fill:#cedddd;fill-opacity:1;fill-rule:nonzero;stroke:none"
             id="path68"
             inkscape:connector-curvature="0" /></g><g
           id="g70"
           transform="translate(280.9268,125.3848)"><path
             d="M 0,0 C -13.841,0.21 -42.166,12.52 -64.889,4.051 -88.211,4.084 4.37,89.54 4.37,89.54 c 0,0 -27.242,13.058 -36.535,16.925 -9.293,3.863 -51.145,6.551 -55.851,4.939 -4.707,-1.613 -35.393,-38.959 -44.957,-55.355 -9.565,-16.396 -50.37,-105.077 -59.135,-129.657 -4.467,-12.52 -34.07,-89.12 -63.102,-164.128 h 111.187 c 0.396,3.242 0.775,6.467 1.132,9.673 9.934,89.384 6.332,128.919 22.139,135.634 15.807,6.716 36.765,14.327 45.235,41.299 8.472,26.976 23.805,28.321 29.261,28.853 5.456,0.531 31.494,0.595 38.653,1.312 7.166,0.721 32.213,-6.565 40.355,5.222 C 40.896,-3.956 13.842,-0.209 0,0"
             style="fill:#ef9f7d;fill-opacity:1;fill-rule:nonzero;stroke:none"
             id="path72"
             inkscape:connector-curvature="0" /></g><g
           id="g74"
           transform="translate(280.9268,125.3848)"><path
             d="m 0,0 c -13.841,0.21 -42.166,12.52 -64.889,4.051 -4.008,0.006 -4.593,2.535 -2.812,6.72 l -35.012,-1.601 7.094,95.277 c -11.055,-11.927 -30.167,-36.076 -37.354,-48.398 -9.565,-16.396 -50.37,-105.077 -59.135,-129.657 -4.467,-12.52 -34.07,-89.12 -63.102,-164.128 h 96.982 c 0.219,1.974 0.438,3.946 0.657,5.909 9.935,89.385 12.639,135.91 28.447,142.626 15.808,6.717 40.43,13.196 48.9,40.167 2.923,9.31 7.201,15.802 11.772,20.338 12.388,10.663 13.115,17.066 11.806,27.982 2.385,-5.567 4.221,-12.761 2.925,-18.988 3.153,1.013 5.755,1.376 7.26,1.523 3.029,0.294 12.4,0.445 21.365,0.644 0.348,5.101 1.626,10.603 4.543,14.491 -2.213,-4.423 -2.31,-9.887 -1.317,-14.416 5.963,0.145 11.357,0.323 14.062,0.594 1.701,0.171 5.114,0.054 8.212,-0.295 0.252,4.681 1.375,9.145 4.657,11.789 -2.038,-3.711 -2.934,-8.163 -2.609,-12.244 9.781,-1.112 22.65,-2.302 28.029,4.289 C 39.333,-2.483 13.842,-0.209 0,0"
             style="fill:#f8b28e;fill-opacity:1;fill-rule:nonzero;stroke:none"
             id="path76"
             inkscape:connector-curvature="0" /></g><g
           id="g78"
           transform="translate(232.1592,170.2666)"><path
             d="M 0,0 C 0,0 -0.951,-10.734 5.94,-16.923"
             style="fill:#f8b28e;fill-opacity:1;fill-rule:nonzero;stroke:none"
             id="path80"
             inkscape:connector-curvature="0" /></g><g
           id="g82"
           transform="translate(306.2744,159.7031)"><path
             d="M 0,0 C 0,0 19.062,-5.234 23.772,-15.033 28.484,-24.831 13.447,-34.319 -2.208,-24.991 -17.864,-15.66 0,0 0,0"
             style="fill:#ef9f7d;fill-opacity:1;fill-rule:nonzero;stroke:none"
             id="path84"
             inkscape:connector-curvature="0" /></g><g
           id="g86"
           transform="translate(330.0469,144.6699)"><path
             d="M 0,0 C -1.285,2.676 -3.646,5.009 -6.392,6.989 -11.228,0.75 -12.135,-6.687 -9.118,-13.382 -1.619,-11.847 2.879,-5.985 0,0"
             style="fill:#f8b28e;fill-opacity:1;fill-rule:nonzero;stroke:none"
             id="path88"
             inkscape:connector-curvature="0" /></g><g
           id="g90"
           transform="translate(312.7598,187.8232)"><path
             d="M 0,0 C 0,0 19.06,-5.236 23.771,-15.033 28.483,-24.832 13.997,-32.58 -1.659,-23.25 -17.315,-13.92 0,0 0,0"
             style="fill:#ef9f7d;fill-opacity:1;fill-rule:nonzero;stroke:none"
             id="path92"
             inkscape:connector-curvature="0" /></g><g
           id="g94"
           transform="translate(336.5312,172.79)"><path
             d="M 0,0 C -1.868,3.885 -5.994,7.05 -10.292,9.457 -15.424,3.001 -15.676,-4.813 -13.229,-12.338 -3.294,-13.152 3.424,-7.119 0,0"
             style="fill:#f8b28e;fill-opacity:1;fill-rule:nonzero;stroke:none"
             id="path96"
             inkscape:connector-curvature="0" /></g><g
           id="g98"
           transform="translate(311.248,215.9023)"><path
             d="M 0,0 C 0,0 19.06,-5.236 23.771,-15.034 28.483,-24.833 13.444,-34.322 -2.211,-24.992 -17.865,-15.662 0,0 0,0"
             style="fill:#ef9f7d;fill-opacity:1;fill-rule:nonzero;stroke:none"
             id="path100"
             inkscape:connector-curvature="0" /></g><g
           id="g102"
           transform="translate(335.0195,200.8682)"><path
             d="M 0,0 C -1.285,2.671 -3.64,5.001 -6.381,6.979 -10.312,0.892 -13.934,-7.519 -8.779,-13.313 -1.482,-11.671 2.834,-5.894 0,0"
             style="fill:#f8b28e;fill-opacity:1;fill-rule:nonzero;stroke:none"
             id="path104"
             inkscape:connector-curvature="0" /></g><g
           id="g106"
           transform="translate(312.3936,140.0918)"><path
             d="m 0,0 c -0.616,-6.965 -6.765,-12.115 -13.73,-11.5 l -99.377,8.791 c -6.966,0.616 -12.115,6.764 -11.497,13.731 l 18.611,210.418 c 0.617,6.967 6.764,12.115 13.732,11.499 l 99.374,-8.79 c 6.967,-0.616 12.116,-6.765 11.5,-13.732 z"
             style="fill:#0187e6;fill-opacity:1;fill-rule:nonzero;stroke:none"
             id="path108"
             inkscape:connector-curvature="0" /></g><g
           id="g110"
           transform="translate(220.0425,372.0254)"><path
             d="m 0,0 c -6.401,0.565 -12.068,-4.182 -12.635,-10.583 l -18.613,-210.418 c -0.566,-6.4 4.182,-12.068 10.581,-12.635 l 99.377,-8.792 c 6.401,-0.564 12.068,4.182 12.634,10.584 l 18.614,210.418 c 0.564,6.4 -4.183,12.069 -10.583,12.635 z m 78.174,-248.465 -99.374,8.79 c -9.731,0.862 -16.946,9.477 -16.086,19.209 l 18.614,210.418 c 0.86,9.729 9.475,16.946 19.207,16.085 l 99.377,-8.79 c 9.729,-0.861 16.943,-9.477 16.084,-19.208 L 97.382,-232.378 c -0.859,-9.732 -9.475,-16.948 -19.208,-16.087"
             style="fill:#3d3d3d;fill-opacity:1;fill-rule:nonzero;stroke:none"
             id="path112"
             inkscape:connector-curvature="0" /></g><g
           id="g114"><g
             id="g116" /><g
             id="g174"><g
               clip-path="url(#clipPath120)"
               id="g172"><g
                 id="g170"><g
                   clip-path="url(#clipPath124)"
                   id="g168"><g
                     id="g166"><g
                       id="g158" /><g
                       mask="url(#mask138)"
                       id="g164"><g
                         id="g162"><path
                           d="m 294.711,146.48 c 0,-17.312 -18.89,-31.346 -42.19,-31.346 -23.3,0 -42.19,14.034 -42.19,31.346 0,17.313 18.89,31.348 42.19,31.348 23.3,0 42.19,-14.035 42.19,-31.348"
                           style="fill:url(#radialGradient156);stroke:none"
                           id="path160"
                           inkscape:connector-curvature="0" /></g></g></g></g></g></g></g></g><g
           id="g176"
           transform="translate(145.1157,126.4121)"><path
             d="m 0,0 c 0,0 65.095,40.365 86.385,47.886 8.496,4.318 29.738,-4.912 36.146,-7.001 6.407,-2.087 9.637,-18.599 -2.036,-23.019 C 110.483,14.077 100.939,14.635 95.375,17.671 90.144,7.238 76.356,-2.443 71.767,-5.589 62.682,-30.899 40.474,-75.589 -3.155,-75.788 -46.783,-75.985 0,0 0,0"
             style="fill:#ef9f7d;fill-opacity:1;fill-rule:nonzero;stroke:none"
             id="path178"
             inkscape:connector-curvature="0" /></g><g
           id="g180"
           transform="translate(145.1157,126.4121)"><path
             d="m 0,0 c 0,0 65.095,40.365 86.385,47.886 8.496,4.318 29.738,-4.912 36.146,-7.001 6.407,-2.087 9.057,-15.892 -2.616,-20.311 C 109.903,16.785 98.547,21.232 92.983,24.269 87.751,13.837 70.073,0.225 65.484,-2.92 56.399,-28.232 40.474,-75.589 -3.155,-75.788 -46.783,-75.985 0,0 0,0"
             style="fill:#f8b28e;fill-opacity:1;fill-rule:nonzero;stroke:none"
             id="path182"
             inkscape:connector-curvature="0" /></g><g
           id="g184"
           transform="translate(252.2217,169.6758)"><path
             d="m 0,0 c 0,0 6.309,-9.609 4.328,-17.962 10.871,-1.3 13.859,-2.072 16.248,2.111 2.393,4.183 -0.835,10.195 -3.246,12.321 C 14.919,-1.404 2.712,0.098 0,0"
             style="fill:#ffccb6;fill-opacity:1;fill-rule:nonzero;stroke:none"
             id="path186"
             inkscape:connector-curvature="0" /></g><g
           id="g188"
           transform="translate(410.1709,278.1641)"><path
             d="m 0,0 c -11.794,-13.034 -31.922,-14.038 -44.954,-2.246 -13.033,11.793 -14.041,31.92 -2.248,44.953 11.793,13.035 31.921,14.04 44.953,2.246 C 10.784,33.161 11.793,13.033 0,0"
             style="fill:#0053a2;fill-opacity:1;fill-rule:nonzero;stroke:none"
             id="path190"
             inkscape:connector-curvature="0" /></g><g
           id="g192"
           transform="translate(404.2773,319.0889)"><path
             d="m 0,0 c -10.792,9.765 -27.514,8.929 -37.279,-1.863 -9.764,-10.791 -8.928,-27.514 1.863,-37.279 10.791,-9.764 27.515,-8.928 37.28,1.863 C 11.627,-26.488 10.79,-9.765 0,0 M -36.978,-40.868 C -48.722,-30.242 -49.632,-12.044 -39.007,-0.3 -28.38,11.442 -10.182,12.352 1.562,1.727 13.306,-8.899 14.216,-27.098 3.59,-38.841 -7.036,-50.585 -25.233,-51.494 -36.978,-40.868"
             style="fill:#ffffff;fill-opacity:1;fill-rule:nonzero;stroke:none"
             id="path194"
             inkscape:connector-curvature="0" /></g><g
           id="g196"
           transform="translate(368.9443,278.3022)"><path
             d="m 0,0 -1.728,1.562 36.979,40.869 1.727,-1.562 z"
             style="fill:#ffffff;fill-opacity:1;fill-rule:nonzero;stroke:none"
             id="path198"
             inkscape:connector-curvature="0" /></g><g
           id="g200"
           transform="translate(363.1709,283.1631)"><path
             d="m 0,0 c -0.058,0.558 -1.283,13.807 11.094,27.488 12.404,13.71 26.635,13.001 27.234,12.963 L 38.187,38.127 C 38.051,38.134 24.44,38.769 12.82,25.925 1.135,13.008 2.304,0.369 2.316,0.242 Z"
             style="fill:#ffffff;fill-opacity:1;fill-rule:nonzero;stroke:none"
             id="path202"
             inkscape:connector-curvature="0" /></g><g
           id="g204"
           transform="translate(373.2061,274.084)"><path
             d="m 0,0 0.009,2.329 c 0.128,0 12.866,0.144 24.51,13.012 11.62,12.844 9.631,26.323 9.611,26.456 l 2.297,0.373 C 36.524,41.577 38.649,27.489 26.244,13.779 13.866,0.099 0.561,-0.002 0,0"
             style="fill:#ffffff;fill-opacity:1;fill-rule:nonzero;stroke:none"
             id="path206"
             inkscape:connector-curvature="0" /></g><g
           id="g208"
           transform="translate(406.2227,280.1655)"><path
             d="m 0,0 -40.868,36.978 1.561,1.727 L 1.562,1.727 Z"
             style="fill:#ffffff;fill-opacity:1;fill-rule:nonzero;stroke:none"
             id="path210"
             inkscape:connector-curvature="0" /></g><g
           id="g212"
           transform="translate(394.3164,308.0815)"><path
             d="m 0,0 c -10.34,9.355 -9.112,18.764 -9.056,19.159 l 2.306,-0.328 c -0.048,-0.349 -1.056,-8.627 8.312,-17.105 9.431,-8.531 17.76,-6.587 17.844,-6.567 l 0.562,-2.26 C 19.579,-7.197 10.342,-9.356 0,0"
             style="fill:#ffffff;fill-opacity:1;fill-rule:nonzero;stroke:none"
             id="path214"
             inkscape:connector-curvature="0" /></g><g
           id="g216"
           transform="translate(359.0586,295.4038)"><path
             d="m 0,0 -0.557,2.261 c 0.388,0.097 9.627,2.256 19.966,-7.1 10.341,-9.356 9.112,-18.764 9.057,-19.16 l -2.306,0.334 c 0.046,0.344 1.057,8.622 -8.313,17.099 C 8.478,1.911 0.341,0.083 0,0"
             style="fill:#ffffff;fill-opacity:1;fill-rule:nonzero;stroke:none"
             id="path218"
             inkscape:connector-curvature="0" /></g><g
           id="g220"><g
             id="g222" /><g
             id="g280"><g
               clip-path="url(#clipPath226)"
               id="g278"><g
                 id="g276"><g
                   clip-path="url(#clipPath230)"
                   id="g274"><g
                     id="g272"><g
                       id="g264" /><g
                       mask="url(#mask244)"
                       id="g270"><g
                         id="g268"><path
                           d="m 263.379,362.379 c 0,-21.862 -17.723,-39.586 -39.586,-39.586 -21.862,0 -39.585,17.724 -39.585,39.586 0,21.864 17.723,39.586 39.585,39.586 21.863,0 39.586,-17.722 39.586,-39.586"
                           style="fill:url(#radialGradient262);stroke:none"
                           id="path266"
                           inkscape:connector-curvature="0" /></g></g></g></g></g></g></g></g><g
           id="g282"><g
             id="g284" /><g
             id="g342"><g
               clip-path="url(#clipPath288)"
               id="g340"><g
                 id="g338"><g
                   clip-path="url(#clipPath292)"
                   id="g336"><g
                     id="g334"><g
                       id="g326" /><g
                       mask="url(#mask306)"
                       id="g332"><g
                         id="g330"><path
                           d="m 271.701,300.074 c 0,-21.864 -17.723,-39.586 -39.586,-39.586 -21.864,0 -39.587,17.722 -39.587,39.586 0,21.863 17.723,39.586 39.587,39.586 21.863,0 39.586,-17.723 39.586,-39.586"
                           style="fill:url(#radialGradient324);stroke:none"
                           id="path328"
                           inkscape:connector-curvature="0" /></g></g></g></g></g></g></g></g><g
           id="g344"
           transform="translate(249.6021,376.7129)"><path
             d="M 0,0 C 0,-9.889 -8.017,-17.905 -17.905,-17.905 H -44.91 c -9.888,0 -17.905,8.016 -17.905,17.905 v 27.004 c 0,9.889 8.017,17.905 17.905,17.905 h 27.005 C -8.017,44.909 0,36.893 0,27.004 Z"
             style="fill:#1faaff;fill-opacity:1;fill-rule:nonzero;stroke:none"
             id="path346"
             inkscape:connector-curvature="0" /></g><g
           id="g348"
           transform="translate(209.4082,376.6543)"><path
             d="m 0,0 c 0.956,-0.071 2.458,-0.332 4.307,-1.16 2.74,-1.42 6.492,-2.126 11.214,-2.126 3.041,0 5.665,0.3 6.925,0.445 1.067,0.121 1.869,0.573 2.232,1.242 0.338,0.621 0.292,1.396 -0.13,2.24 l -0.514,1.027 1.02,0.528 c 1.005,0.519 1.654,1.271 1.74,2.011 0.098,0.849 -0.574,1.618 -1.155,2.113 l -1.125,0.96 1.198,0.868 c 0.884,0.642 1.327,1.332 1.315,2.055 -0.015,0.946 -0.787,1.895 -1.5,2.377 l -1.833,1.241 2.062,0.807 c 0.688,0.27 0.712,1.194 0.617,1.698 -0.104,0.551 -0.506,1.487 -1.352,1.487 -0.949,-0.069 -2.053,-0.103 -3.376,-0.103 -2.228,0 -4.295,0.093 -4.382,0.097 l -1.85,0.084 0.878,1.631 c 0.003,0.007 0.753,1.4 2.461,4.709 0.949,1.839 0.693,4.359 -0.087,5.642 -0.246,0.401 -0.466,0.536 -0.529,0.536 C 17.73,30.237 16.939,28.654 16.361,27.498 14.955,24.686 13.03,20.836 9.223,17.672 6.268,15.216 2.044,14.615 0,14.467 Z m 15.521,-5.614 c -5.099,0 -9.213,0.793 -12.226,2.359 -2.459,1.096 -4.139,0.952 -4.28,0.929 l -1.329,-0.189 -0.014,1.34 v 17.934 l 1.174,-0.009 h 10e-4 c 0.251,0 5.663,0.033 8.887,2.713 3.431,2.851 5.231,6.449 6.544,9.077 1.147,2.294 1.906,3.811 3.313,4.136 1.142,0.259 2.292,-0.328 3.062,-1.592 1.117,-1.834 1.556,-5.232 0.169,-7.92 -0.684,-1.324 -1.215,-2.343 -1.607,-3.092 0.713,-0.018 1.564,-0.033 2.43,-0.033 1.264,0 2.308,0.031 3.102,0.092 1.902,0.148 3.519,-1.279 3.914,-3.374 0.238,-1.262 -0.026,-2.432 -0.677,-3.269 0.743,-0.841 1.351,-1.972 1.372,-3.248 0.013,-0.831 -0.224,-1.971 -1.273,-3.098 0.983,-1.226 1.118,-2.38 1.024,-3.201 -0.143,-1.245 -0.886,-2.396 -2.08,-3.259 0.349,-1.198 0.249,-2.373 -0.301,-3.39 -0.731,-1.348 -2.183,-2.237 -3.986,-2.443 -1.333,-0.153 -4.045,-0.463 -7.219,-0.463"
             style="fill:#ffffff;fill-opacity:1;fill-rule:nonzero;stroke:none"
             id="path350"
             inkscape:connector-curvature="0" /></g><path
           d="m 199.953,373.369 h 7.019 v 21.736 h -7.019 z m 9.348,-2.329 h -11.677 v 26.393 h 11.677 z"
           style="fill:#ffffff;fill-opacity:1;fill-rule:nonzero;stroke:none"
           id="path352"
           inkscape:connector-curvature="0" /><g
           id="g354"
           transform="translate(249.6021,295.3569)"><path
             d="m 0,0 c 0,-5.001 -4.053,-9.054 -9.056,-9.054 h -71.941 c -5.002,0 -9.056,4.053 -9.056,9.054 v 42.189 c 0,5.002 4.054,9.056 9.056,9.056 H -9.056 C -4.053,51.245 0,47.191 0,42.189 Z"
             style="fill:#fd2c32;fill-opacity:1;fill-rule:nonzero;stroke:none"
             id="path356"
             inkscape:connector-curvature="0" /></g><g
           id="g358"
           transform="translate(189.2783,328.9653)"><path
             d="M 0,0 30.596,-12.513 0,-25.027 Z"
             style="fill:#ffffff;fill-opacity:1;fill-rule:nonzero;stroke:none"
             id="path360"
             inkscape:connector-curvature="0" /></g><g
           id="g362"><g
             id="g364" /><g
             id="g422"><g
               clip-path="url(#clipPath368)"
               id="g420"><g
                 id="g418"><g
                   clip-path="url(#clipPath372)"
                   id="g416"><g
                     id="g414"><g
                       id="g406" /><g
                       mask="url(#mask386)"
                       id="g412"><g
                         id="g410"><path
                           d="m 338.051,290.807 c 0,-21.863 -15.867,-39.586 -35.443,-39.586 -19.573,0 -35.442,17.723 -35.442,39.586 0,21.862 15.869,39.586 35.442,39.586 19.576,0 35.443,-17.724 35.443,-39.586"
                           style="fill:url(#radialGradient404);stroke:none"
                           id="path408"
                           inkscape:connector-curvature="0" /></g></g></g></g></g></g></g></g><g
           id="g424"><g
             id="g426" /><g
             id="g484"><g
               clip-path="url(#clipPath430)"
               id="g482"><g
                 id="g480"><g
                   clip-path="url(#clipPath434)"
                   id="g478"><g
                     id="g476"><g
                       id="g468" /><g
                       mask="url(#mask448)"
                       id="g474"><g
                         id="g472"><path
                           d="m 339.805,201.496 c 0,-21.864 -17.724,-39.586 -39.587,-39.586 -21.862,0 -39.586,17.722 -39.586,39.586 0,21.863 17.724,39.586 39.586,39.586 21.863,0 39.587,-17.723 39.587,-39.586"
                           style="fill:url(#radialGradient466);stroke:none"
                           id="path470"
                           inkscape:connector-curvature="0" /></g></g></g></g></g></g></g></g><g
           id="g486"><g
             id="g488" /><g
             id="g546"><g
               clip-path="url(#clipPath492)"
               id="g544"><g
                 id="g542"><g
                   clip-path="url(#clipPath496)"
                   id="g540"><g
                     id="g538"><g
                       id="g530" /><g
                       mask="url(#mask510)"
                       id="g536"><g
                         id="g534"><path
                           d="m 274.574,210.727 c 0,-21.644 -23.717,-39.189 -52.973,-39.189 -29.256,0 -52.975,17.545 -52.975,39.189 0,21.643 23.719,39.188 52.975,39.188 29.256,0 52.973,-17.545 52.973,-39.188"
                           style="fill:url(#radialGradient528);stroke:none"
                           id="path532"
                           inkscape:connector-curvature="0" /></g></g></g></g></g></g></g></g><g
           id="g548"
           transform="translate(343.7432,305.5122)"><path
             d="m 0,0 c -5.313,-13.662 -43.732,-39.206 -43.732,-39.206 0,0 -11.058,44.79 -5.743,58.453 5.315,13.662 20.698,20.428 34.36,15.114 C -1.452,29.046 5.314,13.662 0,0"
             style="fill:#fd2c32;fill-opacity:1;fill-rule:nonzero;stroke:none"
             id="path550"
             inkscape:connector-curvature="0" /></g><g
           id="g552"
           transform="translate(334.918,310.1323)"><path
             d="m 0,0 c -3.333,-8.567 -12.978,-12.811 -21.545,-9.477 -8.568,3.332 -12.81,12.978 -9.477,21.545 3.332,8.567 12.977,12.81 21.545,9.478 C -0.91,18.212 3.332,8.566 0,0"
             style="fill:#ffffff;fill-opacity:1;fill-rule:nonzero;stroke:none"
             id="path554"
             inkscape:connector-curvature="0" /></g><g
           id="g556"><g
             id="g558" /><g
             id="g616"><g
               clip-path="url(#clipPath562)"
               id="g614"><g
                 id="g612"><g
                   clip-path="url(#clipPath566)"
                   id="g610"><g
                     id="g608"><g
                       id="g600" /><g
                       mask="url(#mask580)"
                       id="g606"><g
                         id="g604"><path
                           d="m 334.815,351.377 c 0,-21.863 -17.723,-39.585 -39.586,-39.585 -21.862,0 -39.585,17.722 -39.585,39.585 0,21.863 17.723,39.586 39.585,39.586 21.863,0 39.586,-17.723 39.586,-39.586"
                           style="fill:url(#radialGradient598);stroke:none"
                           id="path602"
                           inkscape:connector-curvature="0" /></g></g></g></g></g></g></g></g><g
           id="g618"
           transform="translate(333.9082,383.0513)"><path
             d="m 0,0 c 0,-19.342 -15.679,-35.021 -35.021,-35.021 -19.342,0 -35.021,15.679 -35.021,35.021 0,19.341 15.679,35.021 35.021,35.021 C -15.679,35.021 0,19.341 0,0"
             style="fill:#ffffff;fill-opacity:1;fill-rule:nonzero;stroke:none"
             id="path620"
             inkscape:connector-curvature="0" /></g><g
           id="g622"
           transform="translate(275.5088,362.3794)"><path
             d="m 0,0 c 0,0 3.3,-15.136 -10.09,-19.405 10.48,-7.179 27.361,2.134 31.63,8.344 C 25.809,-4.851 0,0 0,0"
             style="fill:#ffffff;fill-opacity:1;fill-rule:nonzero;stroke:none"
             id="path624"
             inkscape:connector-curvature="0" /></g><g
           id="g626"
           transform="translate(280.748,392.6753)"><path
             d="m 0,0 c 0,-1.166 -0.944,-2.11 -2.11,-2.11 -1.165,0 -2.11,0.944 -2.11,2.11 0,1.166 0.945,2.11 2.11,2.11 C -0.944,2.11 0,1.166 0,0"
             style="fill:#c8e3fc;fill-opacity:1;fill-rule:nonzero;stroke:none"
             id="path628"
             inkscape:connector-curvature="0" /></g><g
           id="g630"
           transform="translate(289.0439,392.6753)"><path
             d="m 0,0 c 0,-1.166 -0.945,-2.11 -2.11,-2.11 -1.165,0 -2.111,0.944 -2.111,2.11 0,1.166 0.946,2.11 2.111,2.11 C -0.945,2.11 0,1.166 0,0"
             style="fill:#c8e3fc;fill-opacity:1;fill-rule:nonzero;stroke:none"
             id="path632"
             inkscape:connector-curvature="0" /></g><g
           id="g634"
           transform="translate(297.3389,392.6753)"><path
             d="m 0,0 c 0,-1.166 -0.944,-2.11 -2.109,-2.11 -1.166,0 -2.111,0.944 -2.111,2.11 0,1.166 0.945,2.11 2.111,2.11 C -0.944,2.11 0,1.166 0,0"
             style="fill:#c8e3fc;fill-opacity:1;fill-rule:nonzero;stroke:none"
             id="path636"
             inkscape:connector-curvature="0" /></g><g
           id="g638"
           transform="translate(305.6348,392.6753)"><path
             d="m 0,0 c 0,-1.166 -0.944,-2.11 -2.11,-2.11 -1.165,0 -2.11,0.944 -2.11,2.11 0,1.166 0.945,2.11 2.11,2.11 C -0.944,2.11 0,1.166 0,0"
             style="fill:#c8e3fc;fill-opacity:1;fill-rule:nonzero;stroke:none"
             id="path640"
             inkscape:connector-curvature="0" /></g><g
           id="g642"
           transform="translate(313.9307,392.6753)"><path
             d="m 0,0 c 0,-1.166 -0.944,-2.11 -2.11,-2.11 -1.165,0 -2.11,0.944 -2.11,2.11 0,1.166 0.945,2.11 2.11,2.11 C -0.944,2.11 0,1.166 0,0"
             style="fill:#c8e3fc;fill-opacity:1;fill-rule:nonzero;stroke:none"
             id="path644"
             inkscape:connector-curvature="0" /></g><g
           id="g646"
           transform="translate(322.2266,392.6753)"><path
             d="m 0,0 c 0,-1.166 -0.945,-2.11 -2.11,-2.11 -1.165,0 -2.111,0.944 -2.111,2.11 0,1.166 0.946,2.11 2.111,2.11 C -0.945,2.11 0,1.166 0,0"
             style="fill:#c8e3fc;fill-opacity:1;fill-rule:nonzero;stroke:none"
             id="path648"
             inkscape:connector-curvature="0" /></g><g
           id="g650"
           transform="translate(280.748,377.249)"><path
             d="m 0,0 c 0,-1.166 -0.944,-2.111 -2.11,-2.111 -1.165,0 -2.11,0.945 -2.11,2.111 0,1.165 0.945,2.11 2.11,2.11 C -0.944,2.11 0,1.165 0,0"
             style="fill:#c8e3fc;fill-opacity:1;fill-rule:nonzero;stroke:none"
             id="path652"
             inkscape:connector-curvature="0" /></g><g
           id="g654"
           transform="translate(289.0439,377.249)"><path
             d="m 0,0 c 0,-1.166 -0.945,-2.111 -2.11,-2.111 -1.165,0 -2.111,0.945 -2.111,2.111 0,1.165 0.946,2.11 2.111,2.11 C -0.945,2.11 0,1.165 0,0"
             style="fill:#c8e3fc;fill-opacity:1;fill-rule:nonzero;stroke:none"
             id="path656"
             inkscape:connector-curvature="0" /></g><g
           id="g658"
           transform="translate(297.3389,377.249)"><path
             d="m 0,0 c 0,-1.166 -0.944,-2.111 -2.109,-2.111 -1.166,0 -2.111,0.945 -2.111,2.111 0,1.165 0.945,2.11 2.111,2.11 C -0.944,2.11 0,1.165 0,0"
             style="fill:#c8e3fc;fill-opacity:1;fill-rule:nonzero;stroke:none"
             id="path660"
             inkscape:connector-curvature="0" /></g><g
           id="g662"
           transform="translate(305.6348,377.249)"><path
             d="m 0,0 c 0,-1.166 -0.944,-2.111 -2.11,-2.111 -1.165,0 -2.11,0.945 -2.11,2.111 0,1.165 0.945,2.11 2.11,2.11 C -0.944,2.11 0,1.165 0,0"
             style="fill:#c8e3fc;fill-opacity:1;fill-rule:nonzero;stroke:none"
             id="path664"
             inkscape:connector-curvature="0" /></g><g
           id="g666"
           transform="translate(313.9307,377.249)"><path
             d="m 0,0 c 0,-1.166 -0.944,-2.111 -2.11,-2.111 -1.165,0 -2.11,0.945 -2.11,2.111 0,1.165 0.945,2.11 2.11,2.11 C -0.944,2.11 0,1.165 0,0"
             style="fill:#c8e3fc;fill-opacity:1;fill-rule:nonzero;stroke:none"
             id="path668"
             inkscape:connector-curvature="0" /></g><g
           id="g670"
           transform="translate(322.2266,377.249)"><path
             d="m 0,0 c 0,-1.166 -0.945,-2.111 -2.11,-2.111 -1.165,0 -2.111,0.945 -2.111,2.111 0,1.165 0.946,2.11 2.111,2.11 C -0.945,2.11 0,1.165 0,0"
             style="fill:#c8e3fc;fill-opacity:1;fill-rule:nonzero;stroke:none"
             id="path672"
             inkscape:connector-curvature="0" /></g><g
           id="g674"
           transform="translate(162.0791,237.4072)"><path
             d="M 0,0 C -0.906,4.918 2.346,9.638 7.265,10.545 L 73.009,22.66 c 4.921,0.907 9.641,-2.344 10.548,-7.261 l 7.645,-41.491 c 0.907,-4.918 -2.344,-9.638 -7.264,-10.547 L 18.194,-48.755 c -4.92,-0.907 -9.641,2.345 -10.547,7.264 z"
             style="fill:#ffffff;fill-opacity:1;fill-rule:nonzero;stroke:none"
             id="path676"
             inkscape:connector-curvature="0" /></g><g
           id="g678"
           transform="translate(180.2734,188.6523)"><path
             d="m 0,0 65.744,12.116 c 2.543,0.468 4.634,1.96 5.943,3.968 L 33.819,42.166 c -4.643,3.198 -10.996,2.029 -14.192,-2.61 L -6.667,1.379 C -4.777,0.116 -2.415,-0.446 0,0"
             style="fill:#fd2c32;fill-opacity:1;fill-rule:nonzero;stroke:none"
             id="path680"
             inkscape:connector-curvature="0" /></g><g
           id="g682"
           transform="translate(246.0171,200.7686)"><path
             d="m 0,0 c 0.933,0.172 1.804,0.484 2.598,0.908 l -33.39,22.996 c -4.643,3.199 -10.996,2.03 -14.191,-2.61 l -23.091,-33.525 c 0.761,-0.06 1.542,-0.031 2.33,0.115 z"
             style="fill:#ffffff;fill-opacity:1;fill-rule:nonzero;stroke:none"
             id="path684"
             inkscape:connector-curvature="0" /></g><g
           id="g686"
           transform="translate(235.3403,260.1143)"><path
             d="m 0,0 -65.745,-12.116 c -2.542,-0.469 -4.634,-1.961 -5.941,-3.969 l 37.867,-26.081 c 4.643,-3.199 10.995,-2.031 14.192,2.611 L 6.667,-1.378 C 4.776,-0.115 2.414,0.445 0,0"
             style="fill:#ffffff;fill-opacity:1;fill-rule:nonzero;stroke:none"
             id="path688"
             inkscape:connector-curvature="0" /></g><g
           id="g690"
           transform="translate(214.4995,227.1377)"><path
             d="m 0,0 c -3.195,-4.642 -9.548,-5.808 -14.191,-2.611 l -32.984,22.72 c -1.516,-0.729 -2.779,-1.848 -3.67,-3.217 l 37.867,-26.081 c 4.643,-3.2 10.995,-2.032 14.192,2.611 l 26.294,38.176 c -1.371,0.916 -2.992,1.456 -4.7,1.517 z"
             style="fill:#fd2c32;fill-opacity:1;fill-rule:nonzero;stroke:none"
             id="path692"
             inkscape:connector-curvature="0" /></g><g
           id="g694"
           transform="translate(354.2148,205.6689)"><path
             d="m 0,0 c 0,-11.027 -8.94,-19.967 -19.969,-19.967 h -30.113 c -11.029,0 -19.969,8.94 -19.969,19.967 v 30.114 c 0,11.028 8.94,19.969 19.969,19.969 h 30.113 C -8.94,50.083 0,41.142 0,30.114 Z"
             style="fill:#ffffff;fill-opacity:1;fill-rule:nonzero;stroke:none"
             id="path696"
             inkscape:connector-curvature="0" /></g><g
           id="g698"
           transform="translate(304.1328,253.7515)"><path
             d="m 0,0 c -9.908,0 -17.969,-8.06 -17.969,-17.968 v -30.115 c 0,-9.907 8.061,-17.966 17.969,-17.966 h 30.113 c 9.908,0 17.969,8.059 17.969,17.966 v 30.115 C 48.082,-8.06 40.021,0 30.113,0 Z M 30.113,-70.049 H 0 c -12.113,0 -21.969,9.854 -21.969,21.966 v 30.115 C -21.969,-5.855 -12.113,4 0,4 h 30.113 c 12.114,0 21.969,-9.855 21.969,-21.968 v -30.115 c 0,-12.112 -9.855,-21.966 -21.969,-21.966"
             style="fill:#db03c1;fill-opacity:1;fill-rule:nonzero;stroke:none"
             id="path700"
             inkscape:connector-curvature="0" /></g><g
           id="g702"
           transform="translate(319.1895,237.6982)"><path
             d="m 0,0 c -9.358,0 -16.972,-7.613 -16.972,-16.971 0,-9.358 7.614,-16.972 16.972,-16.972 9.357,0 16.971,7.614 16.971,16.972 C 16.971,-7.613 9.357,0 0,0 m 0,-37.943 c -11.563,0 -20.972,9.408 -20.972,20.972 C -20.972,-5.407 -11.563,4 0,4 11.563,4 20.971,-5.407 20.971,-16.971 20.971,-28.535 11.563,-37.943 0,-37.943"
             style="fill:#db03c1;fill-opacity:1;fill-rule:nonzero;stroke:none"
             id="path704"
             inkscape:connector-curvature="0" /></g><g
           id="g706"
           transform="translate(339.8389,243.7441)"><path
             d="m 0,0 c 0,-2.154 -1.748,-3.902 -3.902,-3.902 -2.155,0 -3.903,1.748 -3.903,3.902 0,2.154 1.748,3.902 3.903,3.902 C -1.748,3.902 0,2.154 0,0"
             style="fill:#db03c1;fill-opacity:1;fill-rule:nonzero;stroke:none"
             id="path708"
             inkscape:connector-curvature="0" /></g><g
           id="g710"><g
             id="g712" /><g
             id="g770"><g
               clip-path="url(#clipPath716)"
               id="g768"><g
                 id="g766"><g
                   clip-path="url(#clipPath720)"
                   id="g764"><g
                     id="g762"><g
                       id="g754" /><g
                       mask="url(#mask734)"
                       id="g760"><g
                         id="g758"><path
                           d="m 207.056,339.104 c 0,-21.863 -17.724,-39.586 -39.587,-39.586 -21.863,0 -39.586,17.723 -39.586,39.586 0,21.862 17.723,39.586 39.586,39.586 21.863,0 39.587,-17.724 39.587,-39.586"
                           style="fill:url(#radialGradient752);stroke:none"
                           id="path756"
                           inkscape:connector-curvature="0" /></g></g></g></g></g></g></g></g><g
           id="g772"><g
             id="g774" /><g
             id="g832"><g
               clip-path="url(#clipPath778)"
               id="g830"><g
                 id="g828"><g
                   clip-path="url(#clipPath782)"
                   id="g826"><g
                     id="g824"><g
                       id="g816" /><g
                       mask="url(#mask796)"
                       id="g822"><g
                         id="g820"><path
                           d="m 202.7,239.698 c 0,-18.82 -15.256,-34.074 -34.074,-34.074 -18.818,0 -34.074,15.254 -34.074,34.074 0,18.818 15.256,34.073 34.074,34.073 18.818,0 34.074,-15.255 34.074,-34.073"
                           style="fill:url(#radialGradient814);stroke:none"
                           id="path818"
                           inkscape:connector-curvature="0" /></g></g></g></g></g></g></g></g><g
           id="g834"
           transform="translate(183.5254,337.8389)"><path
             d="m 0,0 c 0,-3.015 -2.442,-5.458 -5.458,-5.458 h -43.364 c -3.015,0 -5.459,2.443 -5.459,5.458 v 25.431 c 0,3.014 2.444,5.458 5.459,5.458 H -5.458 C -2.442,30.889 0,28.445 0,25.431 Z"
             style="fill:#fd2c32;fill-opacity:1;fill-rule:nonzero;stroke:none"
             id="path836"
             inkscape:connector-curvature="0" /></g><g
           id="g838"
           transform="translate(145.8589,337.1157)"><path
             d="M 0,0 10.703,-14.322 21.054,0 Z"
             style="fill:#fd2c32;fill-opacity:1;fill-rule:nonzero;stroke:none"
             id="path840"
             inkscape:connector-curvature="0" /></g><g
           id="g842"
           transform="translate(156.3848,355.582)"><path
             d="M 0,0 C 0,0 1.667,3.553 6.097,3.465 10.527,3.378 12.852,-2.72 9.474,-7.878 6.908,-11.799 0,-15.922 0,-15.922 Z"
             style="fill:#ffffff;fill-opacity:1;fill-rule:nonzero;stroke:none"
             id="path844"
             inkscape:connector-curvature="0" /></g><g
           id="g846"
           transform="translate(156.3848,355.582)"><path
             d="M 0,0 C 0,0 -1.667,3.553 -6.097,3.465 -10.526,3.378 -12.851,-2.72 -9.474,-7.878 -6.908,-11.799 0,-15.922 0,-15.922 Z"
             style="fill:#ffffff;fill-opacity:1;fill-rule:nonzero;stroke:none"
             id="path848"
             inkscape:connector-curvature="0" /></g><g
           id="g850"
           transform="translate(185.1221,253.9219)"><path
             d="m 0,0 c 3.918,9.078 -0.268,19.615 -9.347,23.532 l -24.795,10.699 c -9.08,3.917 -19.616,-0.267 -23.534,-9.346 L -68.375,0.089 c -3.916,-9.077 0.269,-19.616 9.348,-23.532 l 24.795,-10.698 c 9.079,-3.92 19.616,0.267 23.533,9.344 z"
             style="fill:#0053a2;fill-opacity:1;fill-rule:nonzero;stroke:none"
             id="path852"
             inkscape:connector-curvature="0" /></g><g
           id="g854"
           transform="translate(142.5088,256.6147)"><path
             d="m 0,0 c 1.818,-0.945 5.458,-3.17 7.199,-6.596 2.241,-4.413 2.483,-8.713 2.66,-11.849 0.073,-1.292 0.172,-3.06 0.477,-3.376 0.058,-0.025 0.313,0.011 0.699,0.282 1.224,0.868 2.457,3.081 2.314,5.145 -0.257,3.715 -0.394,5.291 -0.394,5.298 l -0.16,1.846 1.732,-0.656 c 0.081,-0.031 2.015,-0.763 4.062,-1.647 1.215,-0.525 2.215,-0.992 3.059,-1.431 0.777,-0.334 1.516,0.363 1.83,0.83 0.287,0.424 0.632,1.281 0.106,1.801 l -1.573,1.559 2.175,0.414 c 0.845,0.16 1.931,0.726 2.32,1.588 0.296,0.659 0.163,1.469 -0.395,2.408 l -0.756,1.272 1.414,0.435 c 0.729,0.225 1.65,0.664 1.897,1.482 0.215,0.714 -0.084,1.661 -0.801,2.537 l -0.727,0.888 0.878,0.739 c 0.722,0.608 1.071,1.302 1.007,2.006 -0.067,0.758 -0.626,1.49 -1.556,2.026 -1.1,0.631 -3.39,1.945 -6.182,3.15 -4.337,1.87 -8.062,2.711 -11.139,2.49 -2.027,-0.027 -3.509,0.327 -4.415,0.642 z m 28.651,9.005 c 1.574,-0.904 2.555,-2.297 2.691,-3.823 0.104,-1.152 -0.27,-2.27 -1.066,-3.231 0.754,-1.267 0.981,-2.618 0.62,-3.818 -0.24,-0.791 -0.821,-1.797 -2.209,-2.532 0.517,-1.451 0.282,-2.591 -0.059,-3.351 -0.524,-1.162 -1.531,-1.959 -2.546,-2.436 0.266,-1.026 0.044,-2.208 -0.674,-3.272 -1.193,-1.766 -3.242,-2.438 -4.93,-1.547 -0.706,0.371 -1.651,0.812 -2.812,1.314 -0.795,0.344 -1.582,0.666 -2.244,0.932 0.063,-0.843 0.147,-1.989 0.251,-3.475 0.208,-3.016 -1.542,-5.966 -3.293,-7.205 -1.208,-0.855 -2.497,-0.939 -3.442,-0.248 -1.165,0.855 -1.259,2.549 -1.403,5.109 -0.166,2.933 -0.392,6.95 -2.412,10.926 -1.9,3.739 -6.856,5.912 -7.086,6.013 h -10e-4 l -1.082,0.457 7.105,16.467 0.544,1.224 1.145,-0.699 c 0.121,-0.078 1.607,-0.875 4.298,-0.843 3.386,0.244 7.478,-0.658 12.161,-2.678 2.913,-1.257 5.281,-2.615 6.444,-3.284"
             style="fill:#ffffff;fill-opacity:1;fill-rule:nonzero;stroke:none"
             id="path856"
             inkscape:connector-curvature="0" /></g><g
           id="g858"
           transform="translate(132.2495,256.7031)"><path
             d="M 0,0 6.445,-2.781 15.056,17.177 8.61,19.958 Z M 7.661,-5.841 -3.061,-1.215 7.396,23.019 18.117,18.392 Z"
             style="fill:#ffffff;fill-opacity:1;fill-rule:nonzero;stroke:none"
             id="path860"
             inkscape:connector-curvature="0" /></g></g></g></g></svg>